<svg width="1475" height="390" viewBox="0 0 1475 390" fill="none" xmlns="http://www.w3.org/2000/svg">
<g filter="url(#filter0_d_376_2061)">
<mask id="path-1-outside-1_376_2061" maskUnits="userSpaceOnUse" x="3.28246" y="3.20038" width="1472" height="386" fill="black">
<rect fill="white" x="3.28246" y="3.20038" width="1472" height="386"/>
<path d="M20.7623 257.401V159.481H12.6023V151.321H4.4424V143.161H12.6023V135.001H28.9222V126.842H45.2421V118.682H69.722V126.842H94.2018V135.001H118.682V143.161H151.321V151.321H159.481V167.641H151.321V175.801H143.161V257.401H151.321V265.561H159.481V281.88H151.321V290.04H118.682V298.2H110.522V306.36H69.722V298.2H53.4021V290.04H12.6023V281.88H4.4424V273.721H12.6023V257.401H20.7623ZM69.722 265.561H86.0418V273.721H102.362V183.961H94.2018V175.801H86.0418V167.641H69.722V159.481H61.562V257.401H69.722V265.561ZM192.121 273.721V265.561H200.281V175.801H192.121V167.641H175.801V151.321H183.961V143.161H200.281V126.842H208.441V110.522H216.601V86.0418H224.761V69.7219H232.921V135.001H265.561V143.161H273.721V159.481H265.561V167.641H241.081V175.801H232.921V265.561H241.081V273.721H257.401V298.2H249.241V306.36H216.601V298.2H200.281V290.04H183.961V273.721H192.121ZM330.84 298.2H314.52V290.04H306.36V281.88H298.2V273.721H306.36V265.561H314.52V175.801H306.36V167.641H298.2V159.481H290.04V151.321H298.2V143.161H306.36V135.001H314.52V94.2018H322.68V61.562H314.52V37.0822H306.36V20.7623H314.52V12.6023H322.68V20.7623H330.84V37.0822H339V28.9222H347.16V12.6023H355.32V4.44239H363.48V53.4021H355.32V151.321H363.48V143.161H371.64V135.001H379.8V126.842H396.12V118.682H428.76V126.842H436.919V135.001H445.079V143.161H453.239V151.321H445.079V159.481H436.919V257.401H445.079V265.561H461.399V273.721H453.239V281.88H445.079V290.04H436.919V298.2H428.76V306.36H420.6V330.84H412.44V355.32H404.28V379.8H396.12V387.96H387.96V339H396.12V167.641H387.96V151.321H371.64V159.481H363.48V167.641H355.32V265.561H363.48V273.721H371.64V290.04H363.48V298.2H347.16V306.36H330.84V298.2ZM485.847 273.721H494.007V167.641H477.687V151.321H485.847V143.161H502.167V135.001H518.487V126.842H526.647V118.682H551.127V126.842H559.287V135.001H575.607V143.161H583.767V151.321H591.927V159.481H600.086V167.641H591.927V175.801H583.767V192.121H575.607V200.281H567.447V208.441H559.287V216.601H551.127V224.761H542.967V241.081H534.807V257.401H542.967V265.561H551.127V273.721H575.607V281.88H567.447V290.04H559.287V298.2H551.127V306.36H526.647V298.2H502.167V290.04H485.847V273.721ZM534.807 216.601H542.967V208.441H551.127V192.121H559.287V175.801H551.127V167.641H534.807V175.801H526.647V208.441H534.807V216.601ZM698.07 273.721H706.229V290.04H698.07V306.36H665.43V298.2H640.95V290.04H632.79V273.721H640.95V167.641H632.79V159.481H624.63V151.321H616.47V135.001H624.63V126.842H632.79V118.682H649.11V126.842H657.27V135.001H673.59V143.161H681.75V151.321H689.91V159.481H681.75V257.401H689.91V265.561H698.07V273.721ZM689.91 143.161H698.07V135.001H706.229V126.842H714.389V118.682H730.709V126.842H738.869V135.001H747.029V143.161H755.189V151.321H747.029V159.481H738.869V167.641H730.709V175.801H714.389V167.641H706.229V159.481H698.07V151.321H689.91V143.161ZM910.164 86.0418H893.844V69.7219H902.004V53.4021H910.164V45.2421H926.484V53.4021H942.804V61.562H950.964V86.0418H942.804V102.362H926.484V94.2018H910.164V86.0418ZM926.484 118.682V126.842H942.804V135.001H959.124V151.321H950.964V159.481H942.804V167.641H934.644V249.241H942.804V265.561H950.964V273.721H959.124V281.88H950.964V290.04H942.804V306.36H926.484V298.2H910.164V290.04H885.684V281.88H877.525V273.721H885.684V257.401H893.844V167.641H885.684V151.321H877.525V143.161H885.684V135.001H893.844V126.842H902.004V118.682H926.484ZM991.796 290.04H983.636V281.88H991.796V257.401H999.956V249.241H1016.28V257.401H1032.6V265.561H1040.76V273.721H1048.92V281.88H1040.76V298.2H1032.6V306.36H1008.12V298.2H991.796V290.04ZM1081.62 298.2H1073.46V281.88H1065.3V273.721H1057.14V257.401H1065.3V249.241H1073.46V167.641H1065.3V159.481H1057.14V143.161H1065.3V126.842H1073.46V118.682H1089.78V126.842H1097.94V135.001H1106.1V143.161H1114.26V151.321H1122.42V159.481H1130.58V151.321H1138.74V143.161H1146.9V135.001H1155.06V126.842H1163.22V118.682H1179.54V126.842H1195.86V143.161H1212.18V151.321H1220.34V167.641H1212.18V175.801H1204.02V257.401H1212.18V265.561H1220.34V273.721H1212.18V281.88H1204.02V290.04H1195.86V306.36H1179.54V298.2H1171.38V290.04H1163.22V281.88H1155.06V273.721H1146.9V265.561H1155.06V249.241H1163.22V183.961H1155.06V175.801H1146.9V167.641H1130.58V175.801H1122.42V200.281H1114.26V257.401H1122.42V265.561H1130.58V273.721H1122.42V281.88H1114.26V290.04H1106.1V298.2H1097.94V306.36H1081.62V298.2ZM1244.91 273.721H1253.07V167.641H1236.75V151.321H1244.91V143.161H1261.23V135.001H1277.55V126.842H1285.71V118.682H1310.19V126.842H1318.35V135.001H1334.67V143.161H1342.83V151.321H1350.99V159.481H1359.15V167.641H1350.99V175.801H1342.83V192.121H1334.67V200.281H1326.51V208.441H1318.35V216.601H1310.19V224.761H1302.03V241.081H1293.87V257.401H1302.03V265.561H1310.19V273.721H1334.67V281.88H1326.51V290.04H1318.35V298.2H1310.19V306.36H1285.71V298.2H1261.23V290.04H1244.91V273.721ZM1293.87 216.601H1302.03V208.441H1310.19V192.121H1318.35V175.801H1310.19V167.641H1293.87V175.801H1285.71V208.441H1293.87V216.601ZM1391.86 273.721V265.561H1400.02V175.801H1391.86V167.641H1375.54V151.321H1383.7V143.161H1400.02V126.842H1408.18V110.522H1416.34V86.0418H1424.5V69.7219H1432.66V135.001H1465.3V143.161H1473.46V159.481H1465.3V167.641H1440.82V175.801H1432.66V265.561H1440.82V273.721H1457.14V298.2H1448.98V306.36H1416.34V298.2H1400.02V290.04H1383.7V273.721H1391.86Z"/>
</mask>
<path d="M20.7623 257.401V159.481H12.6023V151.321H4.4424V143.161H12.6023V135.001H28.9222V126.842H45.2421V118.682H69.722V126.842H94.2018V135.001H118.682V143.161H151.321V151.321H159.481V167.641H151.321V175.801H143.161V257.401H151.321V265.561H159.481V281.88H151.321V290.04H118.682V298.2H110.522V306.36H69.722V298.2H53.4021V290.04H12.6023V281.88H4.4424V273.721H12.6023V257.401H20.7623ZM69.722 265.561H86.0418V273.721H102.362V183.961H94.2018V175.801H86.0418V167.641H69.722V159.481H61.562V257.401H69.722V265.561ZM192.121 273.721V265.561H200.281V175.801H192.121V167.641H175.801V151.321H183.961V143.161H200.281V126.842H208.441V110.522H216.601V86.0418H224.761V69.7219H232.921V135.001H265.561V143.161H273.721V159.481H265.561V167.641H241.081V175.801H232.921V265.561H241.081V273.721H257.401V298.2H249.241V306.36H216.601V298.2H200.281V290.04H183.961V273.721H192.121ZM330.84 298.2H314.52V290.04H306.36V281.88H298.2V273.721H306.36V265.561H314.52V175.801H306.36V167.641H298.2V159.481H290.04V151.321H298.2V143.161H306.36V135.001H314.52V94.2018H322.68V61.562H314.52V37.0822H306.36V20.7623H314.52V12.6023H322.68V20.7623H330.84V37.0822H339V28.9222H347.16V12.6023H355.32V4.44239H363.48V53.4021H355.32V151.321H363.48V143.161H371.64V135.001H379.8V126.842H396.12V118.682H428.76V126.842H436.919V135.001H445.079V143.161H453.239V151.321H445.079V159.481H436.919V257.401H445.079V265.561H461.399V273.721H453.239V281.88H445.079V290.04H436.919V298.2H428.76V306.36H420.6V330.84H412.44V355.32H404.28V379.8H396.12V387.96H387.96V339H396.12V167.641H387.96V151.321H371.64V159.481H363.48V167.641H355.32V265.561H363.48V273.721H371.64V290.04H363.48V298.2H347.16V306.36H330.84V298.2ZM485.847 273.721H494.007V167.641H477.687V151.321H485.847V143.161H502.167V135.001H518.487V126.842H526.647V118.682H551.127V126.842H559.287V135.001H575.607V143.161H583.767V151.321H591.927V159.481H600.086V167.641H591.927V175.801H583.767V192.121H575.607V200.281H567.447V208.441H559.287V216.601H551.127V224.761H542.967V241.081H534.807V257.401H542.967V265.561H551.127V273.721H575.607V281.88H567.447V290.04H559.287V298.2H551.127V306.36H526.647V298.2H502.167V290.04H485.847V273.721ZM534.807 216.601H542.967V208.441H551.127V192.121H559.287V175.801H551.127V167.641H534.807V175.801H526.647V208.441H534.807V216.601ZM698.07 273.721H706.229V290.04H698.07V306.36H665.43V298.2H640.95V290.04H632.79V273.721H640.95V167.641H632.79V159.481H624.63V151.321H616.47V135.001H624.63V126.842H632.79V118.682H649.11V126.842H657.27V135.001H673.59V143.161H681.75V151.321H689.91V159.481H681.75V257.401H689.91V265.561H698.07V273.721ZM689.91 143.161H698.07V135.001H706.229V126.842H714.389V118.682H730.709V126.842H738.869V135.001H747.029V143.161H755.189V151.321H747.029V159.481H738.869V167.641H730.709V175.801H714.389V167.641H706.229V159.481H698.07V151.321H689.91V143.161ZM910.164 86.0418H893.844V69.7219H902.004V53.4021H910.164V45.2421H926.484V53.4021H942.804V61.562H950.964V86.0418H942.804V102.362H926.484V94.2018H910.164V86.0418ZM926.484 118.682V126.842H942.804V135.001H959.124V151.321H950.964V159.481H942.804V167.641H934.644V249.241H942.804V265.561H950.964V273.721H959.124V281.88H950.964V290.04H942.804V306.36H926.484V298.2H910.164V290.04H885.684V281.88H877.525V273.721H885.684V257.401H893.844V167.641H885.684V151.321H877.525V143.161H885.684V135.001H893.844V126.842H902.004V118.682H926.484ZM991.796 290.04H983.636V281.88H991.796V257.401H999.956V249.241H1016.28V257.401H1032.6V265.561H1040.76V273.721H1048.92V281.88H1040.76V298.2H1032.6V306.36H1008.12V298.2H991.796V290.04ZM1081.62 298.2H1073.46V281.88H1065.3V273.721H1057.14V257.401H1065.3V249.241H1073.46V167.641H1065.3V159.481H1057.14V143.161H1065.3V126.842H1073.46V118.682H1089.78V126.842H1097.94V135.001H1106.1V143.161H1114.26V151.321H1122.42V159.481H1130.58V151.321H1138.74V143.161H1146.9V135.001H1155.06V126.842H1163.22V118.682H1179.54V126.842H1195.86V143.161H1212.18V151.321H1220.34V167.641H1212.18V175.801H1204.02V257.401H1212.18V265.561H1220.34V273.721H1212.18V281.88H1204.02V290.04H1195.86V306.36H1179.54V298.2H1171.38V290.04H1163.22V281.88H1155.06V273.721H1146.9V265.561H1155.06V249.241H1163.22V183.961H1155.06V175.801H1146.9V167.641H1130.58V175.801H1122.42V200.281H1114.26V257.401H1122.42V265.561H1130.58V273.721H1122.42V281.88H1114.26V290.04H1106.1V298.2H1097.94V306.36H1081.62V298.2ZM1244.91 273.721H1253.07V167.641H1236.75V151.321H1244.91V143.161H1261.23V135.001H1277.55V126.842H1285.71V118.682H1310.19V126.842H1318.35V135.001H1334.67V143.161H1342.83V151.321H1350.99V159.481H1359.15V167.641H1350.99V175.801H1342.83V192.121H1334.67V200.281H1326.51V208.441H1318.35V216.601H1310.19V224.761H1302.03V241.081H1293.87V257.401H1302.03V265.561H1310.19V273.721H1334.67V281.88H1326.51V290.04H1318.35V298.2H1310.19V306.36H1285.71V298.2H1261.23V290.04H1244.91V273.721ZM1293.87 216.601H1302.03V208.441H1310.19V192.121H1318.35V175.801H1310.19V167.641H1293.87V175.801H1285.71V208.441H1293.87V216.601ZM1391.86 273.721V265.561H1400.02V175.801H1391.86V167.641H1375.54V151.321H1383.7V143.161H1400.02V126.842H1408.18V110.522H1416.34V86.0418H1424.5V69.7219H1432.66V135.001H1465.3V143.161H1473.46V159.481H1465.3V167.641H1440.82V175.801H1432.66V265.561H1440.82V273.721H1457.14V298.2H1448.98V306.36H1416.34V298.2H1400.02V290.04H1383.7V273.721H1391.86Z" fill="url(#paint0_linear_376_2061)"/>
<path d="M20.7623 257.401V258.543H21.9047V257.401H20.7623ZM20.7623 159.481H21.9047V158.339H20.7623V159.481ZM12.6023 159.481H11.46V160.624H12.6023V159.481ZM12.6023 151.321H13.7447V150.179H12.6023V151.321ZM4.4424 151.321H3.30001V152.464H4.4424V151.321ZM4.4424 143.161V142.019H3.30001V143.161H4.4424ZM12.6023 143.161V144.304H13.7447V143.161H12.6023ZM12.6023 135.001V133.859H11.46V135.001H12.6023ZM28.9222 135.001V136.144H30.0646V135.001H28.9222ZM28.9222 126.842V125.699H27.7798V126.842H28.9222ZM45.2421 126.842V127.984H46.3845V126.842H45.2421ZM45.2421 118.682V117.539H44.0997V118.682H45.2421ZM69.722 118.682H70.8643V117.539H69.722V118.682ZM69.722 126.842H68.5796V127.984H69.722V126.842ZM94.2018 126.842H95.3442V125.699H94.2018V126.842ZM94.2018 135.001H93.0594V136.144H94.2018V135.001ZM118.682 135.001H119.824V133.859H118.682V135.001ZM118.682 143.161H117.539V144.304H118.682V143.161ZM151.321 143.161H152.464V142.019H151.321V143.161ZM151.321 151.321H150.179V152.464H151.321V151.321ZM159.481 151.321H160.624V150.179H159.481V151.321ZM159.481 167.641V168.784H160.624V167.641H159.481ZM151.321 167.641V166.499H150.179V167.641H151.321ZM151.321 175.801V176.944H152.464V175.801H151.321ZM143.161 175.801V174.659H142.019V175.801H143.161ZM143.161 257.401H142.019V258.543H143.161V257.401ZM151.321 257.401H152.464V256.258H151.321V257.401ZM151.321 265.561H150.179V266.703H151.321V265.561ZM159.481 265.561H160.624V264.418H159.481V265.561ZM159.481 281.88V283.023H160.624V281.88H159.481ZM151.321 281.88V280.738H150.179V281.88H151.321ZM151.321 290.04V291.183H152.464V290.04H151.321ZM118.682 290.04V288.898H117.539V290.04H118.682ZM118.682 298.2V299.343H119.824V298.2H118.682ZM110.522 298.2V297.058H109.379V298.2H110.522ZM110.522 306.36V307.503H111.664V306.36H110.522ZM69.722 306.36H68.5796V307.503H69.722V306.36ZM69.722 298.2H70.8643V297.058H69.722V298.2ZM53.4021 298.2H52.2597V299.343H53.4021V298.2ZM53.4021 290.04H54.5445V288.898H53.4021V290.04ZM12.6023 290.04H11.46V291.183H12.6023V290.04ZM12.6023 281.88H13.7447V280.738H12.6023V281.88ZM4.4424 281.88H3.30001V283.023H4.4424V281.88ZM4.4424 273.721V272.578H3.30001V273.721H4.4424ZM12.6023 273.721V274.863H13.7447V273.721H12.6023ZM12.6023 257.401V256.258H11.46V257.401H12.6023ZM69.722 265.561H68.5796V266.703H69.722V265.561ZM86.0418 265.561H87.1842V264.418H86.0418V265.561ZM86.0418 273.721H84.8994V274.863H86.0418V273.721ZM102.362 273.721V274.863H103.504V273.721H102.362ZM102.362 183.961H103.504V182.819H102.362V183.961ZM94.2018 183.961H93.0594V185.104H94.2018V183.961ZM94.2018 175.801H95.3442V174.659H94.2018V175.801ZM86.0418 175.801H84.8994V176.944H86.0418V175.801ZM86.0418 167.641H87.1842V166.499H86.0418V167.641ZM69.722 167.641H68.5796V168.784H69.722V167.641ZM69.722 159.481H70.8643V158.339H69.722V159.481ZM61.562 159.481V158.339H60.4196V159.481H61.562ZM61.562 257.401H60.4196V258.543H61.562V257.401ZM69.722 257.401H70.8643V256.258H69.722V257.401ZM20.7623 257.401H21.9047V159.481H20.7623H19.6199V257.401H20.7623ZM20.7623 159.481V158.339H12.6023V159.481V160.624H20.7623V159.481ZM12.6023 159.481H13.7447V151.321H12.6023H11.46V159.481H12.6023ZM12.6023 151.321V150.179H4.4424V151.321V152.464H12.6023V151.321ZM4.4424 151.321H5.58479V143.161H4.4424H3.30001V151.321H4.4424ZM4.4424 143.161V144.304H12.6023V143.161V142.019H4.4424V143.161ZM12.6023 143.161H13.7447V135.001H12.6023H11.46V143.161H12.6023ZM12.6023 135.001V136.144H28.9222V135.001V133.859H12.6023V135.001ZM28.9222 135.001H30.0646V126.842H28.9222H27.7798V135.001H28.9222ZM28.9222 126.842V127.984H45.2421V126.842V125.699H28.9222V126.842ZM45.2421 126.842H46.3845V118.682H45.2421H44.0997V126.842H45.2421ZM45.2421 118.682V119.824H69.722V118.682V117.539H45.2421V118.682ZM69.722 118.682H68.5796V126.842H69.722H70.8643V118.682H69.722ZM69.722 126.842V127.984H94.2018V126.842V125.699H69.722V126.842ZM94.2018 126.842H93.0594V135.001H94.2018H95.3442V126.842H94.2018ZM94.2018 135.001V136.144H118.682V135.001V133.859H94.2018V135.001ZM118.682 135.001H117.539V143.161H118.682H119.824V135.001H118.682ZM118.682 143.161V144.304H151.321V143.161V142.019H118.682V143.161ZM151.321 143.161H150.179V151.321H151.321H152.464V143.161H151.321ZM151.321 151.321V152.464H159.481V151.321V150.179H151.321V151.321ZM159.481 151.321H158.339V167.641H159.481H160.624V151.321H159.481ZM159.481 167.641V166.499H151.321V167.641V168.784H159.481V167.641ZM151.321 167.641H150.179V175.801H151.321H152.464V167.641H151.321ZM151.321 175.801V174.659H143.161V175.801V176.944H151.321V175.801ZM143.161 175.801H142.019V257.401H143.161H144.304V175.801H143.161ZM143.161 257.401V258.543H151.321V257.401V256.258H143.161V257.401ZM151.321 257.401H150.179V265.561H151.321H152.464V257.401H151.321ZM151.321 265.561V266.703H159.481V265.561V264.418H151.321V265.561ZM159.481 265.561H158.339V281.88H159.481H160.624V265.561H159.481ZM159.481 281.88V280.738H151.321V281.88V283.023H159.481V281.88ZM151.321 281.88H150.179V290.04H151.321H152.464V281.88H151.321ZM151.321 290.04V288.898H118.682V290.04V291.183H151.321V290.04ZM118.682 290.04H117.539V298.2H118.682H119.824V290.04H118.682ZM118.682 298.2V297.058H110.522V298.2V299.343H118.682V298.2ZM110.522 298.2H109.379V306.36H110.522H111.664V298.2H110.522ZM110.522 306.36V305.218H69.722V306.36V307.503H110.522V306.36ZM69.722 306.36H70.8643V298.2H69.722H68.5796V306.36H69.722ZM69.722 298.2V297.058H53.4021V298.2V299.343H69.722V298.2ZM53.4021 298.2H54.5445V290.04H53.4021H52.2597V298.2H53.4021ZM53.4021 290.04V288.898H12.6023V290.04V291.183H53.4021V290.04ZM12.6023 290.04H13.7447V281.88H12.6023H11.46V290.04H12.6023ZM12.6023 281.88V280.738H4.4424V281.88V283.023H12.6023V281.88ZM4.4424 281.88H5.58479V273.721H4.4424H3.30001V281.88H4.4424ZM4.4424 273.721V274.863H12.6023V273.721V272.578H4.4424V273.721ZM12.6023 273.721H13.7447V257.401H12.6023H11.46V273.721H12.6023ZM12.6023 257.401V258.543H20.7623V257.401V256.258H12.6023V257.401ZM69.722 265.561V266.703H86.0418V265.561V264.418H69.722V265.561ZM86.0418 265.561H84.8994V273.721H86.0418H87.1842V265.561H86.0418ZM86.0418 273.721V274.863H102.362V273.721V272.578H86.0418V273.721ZM102.362 273.721H103.504V183.961H102.362H101.219V273.721H102.362ZM102.362 183.961V182.819H94.2018V183.961V185.104H102.362V183.961ZM94.2018 183.961H95.3442V175.801H94.2018H93.0594V183.961H94.2018ZM94.2018 175.801V174.659H86.0418V175.801V176.944H94.2018V175.801ZM86.0418 175.801H87.1842V167.641H86.0418H84.8994V175.801H86.0418ZM86.0418 167.641V166.499H69.722V167.641V168.784H86.0418V167.641ZM69.722 167.641H70.8643V159.481H69.722H68.5796V167.641H69.722ZM69.722 159.481V158.339H61.562V159.481V160.624H69.722V159.481ZM61.562 159.481H60.4196V257.401H61.562H62.7044V159.481H61.562ZM61.562 257.401V258.543H69.722V257.401V256.258H61.562V257.401ZM69.722 257.401H68.5796V265.561H69.722H70.8643V257.401H69.722ZM192.121 273.721V274.863H193.264V273.721H192.121ZM192.121 265.561V264.418H190.979V265.561H192.121ZM200.281 265.561V266.703H201.423V265.561H200.281ZM200.281 175.801H201.423V174.659H200.281V175.801ZM192.121 175.801H190.979V176.944H192.121V175.801ZM192.121 167.641H193.264V166.499H192.121V167.641ZM175.801 167.641H174.659V168.784H175.801V167.641ZM175.801 151.321V150.179H174.659V151.321H175.801ZM183.961 151.321V152.464H185.104V151.321H183.961ZM183.961 143.161V142.019H182.819V143.161H183.961ZM200.281 143.161V144.304H201.423V143.161H200.281ZM200.281 126.842V125.699H199.139V126.842H200.281ZM208.441 126.842V127.984H209.583V126.842H208.441ZM208.441 110.522V109.379H207.299V110.522H208.441ZM216.601 110.522V111.664H217.743V110.522H216.601ZM216.601 86.0418V84.8994H215.459V86.0418H216.601ZM224.761 86.0418V87.1842H225.903V86.0418H224.761ZM224.761 69.7219V68.5795H223.618V69.7219H224.761ZM232.921 69.7219H234.063V68.5795H232.921V69.7219ZM232.921 135.001H231.778V136.144H232.921V135.001ZM265.561 135.001H266.703V133.859H265.561V135.001ZM265.561 143.161H264.418V144.304H265.561V143.161ZM273.721 143.161H274.863V142.019H273.721V143.161ZM273.721 159.481V160.624H274.863V159.481H273.721ZM265.561 159.481V158.339H264.418V159.481H265.561ZM265.561 167.641V168.784H266.703V167.641H265.561ZM241.081 167.641V166.499H239.938V167.641H241.081ZM241.081 175.801V176.944H242.223V175.801H241.081ZM232.921 175.801V174.659H231.778V175.801H232.921ZM232.921 265.561H231.778V266.703H232.921V265.561ZM241.081 265.561H242.223V264.418H241.081V265.561ZM241.081 273.721H239.938V274.863H241.081V273.721ZM257.401 273.721H258.543V272.578H257.401V273.721ZM257.401 298.2V299.343H258.543V298.2H257.401ZM249.241 298.2V297.058H248.098V298.2H249.241ZM249.241 306.36V307.503H250.383V306.36H249.241ZM216.601 306.36H215.459V307.503H216.601V306.36ZM216.601 298.2H217.743V297.058H216.601V298.2ZM200.281 298.2H199.139V299.343H200.281V298.2ZM200.281 290.04H201.423V288.898H200.281V290.04ZM183.961 290.04H182.819V291.183H183.961V290.04ZM183.961 273.721V272.578H182.819V273.721H183.961ZM192.121 273.721H193.264V265.561H192.121H190.979V273.721H192.121ZM192.121 265.561V266.703H200.281V265.561V264.418H192.121V265.561ZM200.281 265.561H201.423V175.801H200.281H199.139V265.561H200.281ZM200.281 175.801V174.659H192.121V175.801V176.944H200.281V175.801ZM192.121 175.801H193.264V167.641H192.121H190.979V175.801H192.121ZM192.121 167.641V166.499H175.801V167.641V168.784H192.121V167.641ZM175.801 167.641H176.944V151.321H175.801H174.659V167.641H175.801ZM175.801 151.321V152.464H183.961V151.321V150.179H175.801V151.321ZM183.961 151.321H185.104V143.161H183.961H182.819V151.321H183.961ZM183.961 143.161V144.304H200.281V143.161V142.019H183.961V143.161ZM200.281 143.161H201.423V126.842H200.281H199.139V143.161H200.281ZM200.281 126.842V127.984H208.441V126.842V125.699H200.281V126.842ZM208.441 126.842H209.583V110.522H208.441H207.299V126.842H208.441ZM208.441 110.522V111.664H216.601V110.522V109.379H208.441V110.522ZM216.601 110.522H217.743V86.0418H216.601H215.459V110.522H216.601ZM216.601 86.0418V87.1842H224.761V86.0418V84.8994H216.601V86.0418ZM224.761 86.0418H225.903V69.7219H224.761H223.618V86.0418H224.761ZM224.761 69.7219V70.8643H232.921V69.7219V68.5795H224.761V69.7219ZM232.921 69.7219H231.778V135.001H232.921H234.063V69.7219H232.921ZM232.921 135.001V136.144H265.561V135.001V133.859H232.921V135.001ZM265.561 135.001H264.418V143.161H265.561H266.703V135.001H265.561ZM265.561 143.161V144.304H273.721V143.161V142.019H265.561V143.161ZM273.721 143.161H272.578V159.481H273.721H274.863V143.161H273.721ZM273.721 159.481V158.339H265.561V159.481V160.624H273.721V159.481ZM265.561 159.481H264.418V167.641H265.561H266.703V159.481H265.561ZM265.561 167.641V166.499H241.081V167.641V168.784H265.561V167.641ZM241.081 167.641H239.938V175.801H241.081H242.223V167.641H241.081ZM241.081 175.801V174.659H232.921V175.801V176.944H241.081V175.801ZM232.921 175.801H231.778V265.561H232.921H234.063V175.801H232.921ZM232.921 265.561V266.703H241.081V265.561V264.418H232.921V265.561ZM241.081 265.561H239.938V273.721H241.081H242.223V265.561H241.081ZM241.081 273.721V274.863H257.401V273.721V272.578H241.081V273.721ZM257.401 273.721H256.258V298.2H257.401H258.543V273.721H257.401ZM257.401 298.2V297.058H249.241V298.2V299.343H257.401V298.2ZM249.241 298.2H248.098V306.36H249.241H250.383V298.2H249.241ZM249.241 306.36V305.218H216.601V306.36V307.503H249.241V306.36ZM216.601 306.36H217.743V298.2H216.601H215.459V306.36H216.601ZM216.601 298.2V297.058H200.281V298.2V299.343H216.601V298.2ZM200.281 298.2H201.423V290.04H200.281H199.139V298.2H200.281ZM200.281 290.04V288.898H183.961V290.04V291.183H200.281V290.04ZM183.961 290.04H185.104V273.721H183.961H182.819V290.04H183.961ZM183.961 273.721V274.863H192.121V273.721V272.578H183.961V273.721ZM330.84 298.2H331.983V297.058H330.84V298.2ZM314.52 298.2H313.378V299.343H314.52V298.2ZM314.52 290.04H315.663V288.898H314.52V290.04ZM306.36 290.04H305.218V291.183H306.36V290.04ZM306.36 281.88H307.503V280.738H306.36V281.88ZM298.2 281.88H297.058V283.023H298.2V281.88ZM298.2 273.721V272.578H297.058V273.721H298.2ZM306.36 273.721V274.863H307.503V273.721H306.36ZM306.36 265.561V264.418H305.218V265.561H306.36ZM314.52 265.561V266.703H315.663V265.561H314.52ZM314.52 175.801H315.663V174.659H314.52V175.801ZM306.36 175.801H305.218V176.944H306.36V175.801ZM306.36 167.641H307.503V166.499H306.36V167.641ZM298.2 167.641H297.058V168.784H298.2V167.641ZM298.2 159.481H299.343V158.339H298.2V159.481ZM290.04 159.481H288.898V160.624H290.04V159.481ZM290.04 151.321V150.179H288.898V151.321H290.04ZM298.2 151.321V152.464H299.343V151.321H298.2ZM298.2 143.161V142.019H297.058V143.161H298.2ZM306.36 143.161V144.304H307.503V143.161H306.36ZM306.36 135.001V133.859H305.218V135.001H306.36ZM314.52 135.001V136.144H315.663V135.001H314.52ZM314.52 94.2018V93.0594H313.378V94.2018H314.52ZM322.68 94.2018V95.3442H323.823V94.2018H322.68ZM322.68 61.562H323.823V60.4196H322.68V61.562ZM314.52 61.562H313.378V62.7044H314.52V61.562ZM314.52 37.0822H315.663V35.9398H314.52V37.0822ZM306.36 37.0822H305.218V38.2246H306.36V37.0822ZM306.36 20.7623V19.6199H305.218V20.7623H306.36ZM314.52 20.7623V21.9047H315.663V20.7623H314.52ZM314.52 12.6023V11.4599H313.378V12.6023H314.52ZM322.68 12.6023H323.823V11.4599H322.68V12.6023ZM322.68 20.7623H321.538V21.9047H322.68V20.7623ZM330.84 20.7623H331.983V19.6199H330.84V20.7623ZM330.84 37.0822H329.698V38.2246H330.84V37.0822ZM339 37.0822V38.2246H340.143V37.0822H339ZM339 28.9222V27.7798H337.858V28.9222H339ZM347.16 28.9222V30.0646H348.302V28.9222H347.16ZM347.16 12.6023V11.4599H346.018V12.6023H347.16ZM355.32 12.6023V13.7447H356.462V12.6023H355.32ZM355.32 4.44238V3.29999H354.178V4.44238H355.32ZM363.48 4.44238H364.622V3.29999H363.48V4.44238ZM363.48 53.4021V54.5444H364.622V53.4021H363.48ZM355.32 53.4021V52.2597H354.178V53.4021H355.32ZM355.32 151.321H354.178V152.464H355.32V151.321ZM363.48 151.321V152.464H364.622V151.321H363.48ZM363.48 143.161V142.019H362.338V143.161H363.48ZM371.64 143.161V144.304H372.782V143.161H371.64ZM371.64 135.001V133.859H370.497V135.001H371.64ZM379.8 135.001V136.144H380.942V135.001H379.8ZM379.8 126.842V125.699H378.657V126.842H379.8ZM396.12 126.842V127.984H397.262V126.842H396.12ZM396.12 118.682V117.539H394.977V118.682H396.12ZM428.76 118.682H429.902V117.539H428.76V118.682ZM428.76 126.842H427.617V127.984H428.76V126.842ZM436.919 126.842H438.062V125.699H436.919V126.842ZM436.919 135.001H435.777V136.144H436.919V135.001ZM445.079 135.001H446.222V133.859H445.079V135.001ZM445.079 143.161H443.937V144.304H445.079V143.161ZM453.239 143.161H454.382V142.019H453.239V143.161ZM453.239 151.321V152.464H454.382V151.321H453.239ZM445.079 151.321V150.179H443.937V151.321H445.079ZM445.079 159.481V160.624H446.222V159.481H445.079ZM436.919 159.481V158.339H435.777V159.481H436.919ZM436.919 257.401H435.777V258.543H436.919V257.401ZM445.079 257.401H446.222V256.258H445.079V257.401ZM445.079 265.561H443.937V266.703H445.079V265.561ZM461.399 265.561H462.542V264.418H461.399V265.561ZM461.399 273.721V274.863H462.542V273.721H461.399ZM453.239 273.721V272.578H452.097V273.721H453.239ZM453.239 281.88V283.023H454.382V281.88H453.239ZM445.079 281.88V280.738H443.937V281.88H445.079ZM445.079 290.04V291.183H446.222V290.04H445.079ZM436.919 290.04V288.898H435.777V290.04H436.919ZM436.919 298.2V299.343H438.062V298.2H436.919ZM428.76 298.2V297.058H427.617V298.2H428.76ZM428.76 306.36V307.503H429.902V306.36H428.76ZM420.6 306.36V305.218H419.457V306.36H420.6ZM420.6 330.84V331.983H421.742V330.84H420.6ZM412.44 330.84V329.698H411.297V330.84H412.44ZM412.44 355.32V356.462H413.582V355.32H412.44ZM404.28 355.32V354.178H403.137V355.32H404.28ZM404.28 379.8V380.942H405.422V379.8H404.28ZM396.12 379.8V378.657H394.977V379.8H396.12ZM396.12 387.96V389.102H397.262V387.96H396.12ZM387.96 387.96H386.817V389.102H387.96V387.96ZM387.96 339V337.858H386.817V339H387.96ZM396.12 339V340.142H397.262V339H396.12ZM396.12 167.641H397.262V166.499H396.12V167.641ZM387.96 167.641H386.817V168.784H387.96V167.641ZM387.96 151.321H389.102V150.179H387.96V151.321ZM371.64 151.321V150.179H370.497V151.321H371.64ZM371.64 159.481V160.624H372.782V159.481H371.64ZM363.48 159.481V158.339H362.338V159.481H363.48ZM363.48 167.641V168.784H364.622V167.641H363.48ZM355.32 167.641V166.499H354.178V167.641H355.32ZM355.32 265.561H354.178V266.703H355.32V265.561ZM363.48 265.561H364.622V264.418H363.48V265.561ZM363.48 273.721H362.338V274.863H363.48V273.721ZM371.64 273.721H372.782V272.578H371.64V273.721ZM371.64 290.04V291.183H372.782V290.04H371.64ZM363.48 290.04V288.898H362.338V290.04H363.48ZM363.48 298.2V299.343H364.622V298.2H363.48ZM347.16 298.2V297.058H346.018V298.2H347.16ZM347.16 306.36V307.503H348.302V306.36H347.16ZM330.84 306.36H329.698V307.503H330.84V306.36ZM330.84 298.2V297.058H314.52V298.2V299.343H330.84V298.2ZM314.52 298.2H315.663V290.04H314.52H313.378V298.2H314.52ZM314.52 290.04V288.898H306.36V290.04V291.183H314.52V290.04ZM306.36 290.04H307.503V281.88H306.36H305.218V290.04H306.36ZM306.36 281.88V280.738H298.2V281.88V283.023H306.36V281.88ZM298.2 281.88H299.343V273.721H298.2H297.058V281.88H298.2ZM298.2 273.721V274.863H306.36V273.721V272.578H298.2V273.721ZM306.36 273.721H307.503V265.561H306.36H305.218V273.721H306.36ZM306.36 265.561V266.703H314.52V265.561V264.418H306.36V265.561ZM314.52 265.561H315.663V175.801H314.52H313.378V265.561H314.52ZM314.52 175.801V174.659H306.36V175.801V176.944H314.52V175.801ZM306.36 175.801H307.503V167.641H306.36H305.218V175.801H306.36ZM306.36 167.641V166.499H298.2V167.641V168.784H306.36V167.641ZM298.2 167.641H299.343V159.481H298.2H297.058V167.641H298.2ZM298.2 159.481V158.339H290.04V159.481V160.624H298.2V159.481ZM290.04 159.481H291.183V151.321H290.04H288.898V159.481H290.04ZM290.04 151.321V152.464H298.2V151.321V150.179H290.04V151.321ZM298.2 151.321H299.343V143.161H298.2H297.058V151.321H298.2ZM298.2 143.161V144.304H306.36V143.161V142.019H298.2V143.161ZM306.36 143.161H307.503V135.001H306.36H305.218V143.161H306.36ZM306.36 135.001V136.144H314.52V135.001V133.859H306.36V135.001ZM314.52 135.001H315.663V94.2018H314.52H313.378V135.001H314.52ZM314.52 94.2018V95.3442H322.68V94.2018V93.0594H314.52V94.2018ZM322.68 94.2018H323.823V61.562H322.68H321.538V94.2018H322.68ZM322.68 61.562V60.4196H314.52V61.562V62.7044H322.68V61.562ZM314.52 61.562H315.663V37.0822H314.52H313.378V61.562H314.52ZM314.52 37.0822V35.9398H306.36V37.0822V38.2246H314.52V37.0822ZM306.36 37.0822H307.503V20.7623H306.36H305.218V37.0822H306.36ZM306.36 20.7623V21.9047H314.52V20.7623V19.6199H306.36V20.7623ZM314.52 20.7623H315.663V12.6023H314.52H313.378V20.7623H314.52ZM314.52 12.6023V13.7447H322.68V12.6023V11.4599H314.52V12.6023ZM322.68 12.6023H321.538V20.7623H322.68H323.823V12.6023H322.68ZM322.68 20.7623V21.9047H330.84V20.7623V19.6199H322.68V20.7623ZM330.84 20.7623H329.698V37.0822H330.84H331.983V20.7623H330.84ZM330.84 37.0822V38.2246H339V37.0822V35.9398H330.84V37.0822ZM339 37.0822H340.143V28.9222H339H337.858V37.0822H339ZM339 28.9222V30.0646H347.16V28.9222V27.7798H339V28.9222ZM347.16 28.9222H348.302V12.6023H347.16H346.018V28.9222H347.16ZM347.16 12.6023V13.7447H355.32V12.6023V11.4599H347.16V12.6023ZM355.32 12.6023H356.462V4.44238H355.32H354.178V12.6023H355.32ZM355.32 4.44238V5.58478H363.48V4.44238V3.29999H355.32V4.44238ZM363.48 4.44238H362.338V53.4021H363.48H364.622V4.44238H363.48ZM363.48 53.4021V52.2597H355.32V53.4021V54.5444H363.48V53.4021ZM355.32 53.4021H354.178V151.321H355.32H356.462V53.4021H355.32ZM355.32 151.321V152.464H363.48V151.321V150.179H355.32V151.321ZM363.48 151.321H364.622V143.161H363.48H362.338V151.321H363.48ZM363.48 143.161V144.304H371.64V143.161V142.019H363.48V143.161ZM371.64 143.161H372.782V135.001H371.64H370.497V143.161H371.64ZM371.64 135.001V136.144H379.8V135.001V133.859H371.64V135.001ZM379.8 135.001H380.942V126.842H379.8H378.657V135.001H379.8ZM379.8 126.842V127.984H396.12V126.842V125.699H379.8V126.842ZM396.12 126.842H397.262V118.682H396.12H394.977V126.842H396.12ZM396.12 118.682V119.824H428.76V118.682V117.539H396.12V118.682ZM428.76 118.682H427.617V126.842H428.76H429.902V118.682H428.76ZM428.76 126.842V127.984H436.919V126.842V125.699H428.76V126.842ZM436.919 126.842H435.777V135.001H436.919H438.062V126.842H436.919ZM436.919 135.001V136.144H445.079V135.001V133.859H436.919V135.001ZM445.079 135.001H443.937V143.161H445.079H446.222V135.001H445.079ZM445.079 143.161V144.304H453.239V143.161V142.019H445.079V143.161ZM453.239 143.161H452.097V151.321H453.239H454.382V143.161H453.239ZM453.239 151.321V150.179H445.079V151.321V152.464H453.239V151.321ZM445.079 151.321H443.937V159.481H445.079H446.222V151.321H445.079ZM445.079 159.481V158.339H436.919V159.481V160.624H445.079V159.481ZM436.919 159.481H435.777V257.401H436.919H438.062V159.481H436.919ZM436.919 257.401V258.543H445.079V257.401V256.258H436.919V257.401ZM445.079 257.401H443.937V265.561H445.079H446.222V257.401H445.079ZM445.079 265.561V266.703H461.399V265.561V264.418H445.079V265.561ZM461.399 265.561H460.257V273.721H461.399H462.542V265.561H461.399ZM461.399 273.721V272.578H453.239V273.721V274.863H461.399V273.721ZM453.239 273.721H452.097V281.88H453.239H454.382V273.721H453.239ZM453.239 281.88V280.738H445.079V281.88V283.023H453.239V281.88ZM445.079 281.88H443.937V290.04H445.079H446.222V281.88H445.079ZM445.079 290.04V288.898H436.919V290.04V291.183H445.079V290.04ZM436.919 290.04H435.777V298.2H436.919H438.062V290.04H436.919ZM436.919 298.2V297.058H428.76V298.2V299.343H436.919V298.2ZM428.76 298.2H427.617V306.36H428.76H429.902V298.2H428.76ZM428.76 306.36V305.218H420.6V306.36V307.503H428.76V306.36ZM420.6 306.36H419.457V330.84H420.6H421.742V306.36H420.6ZM420.6 330.84V329.698H412.44V330.84V331.983H420.6V330.84ZM412.44 330.84H411.297V355.32H412.44H413.582V330.84H412.44ZM412.44 355.32V354.178H404.28V355.32V356.462H412.44V355.32ZM404.28 355.32H403.137V379.8H404.28H405.422V355.32H404.28ZM404.28 379.8V378.657H396.12V379.8V380.942H404.28V379.8ZM396.12 379.8H394.977V387.96H396.12H397.262V379.8H396.12ZM396.12 387.96V386.817H387.96V387.96V389.102H396.12V387.96ZM387.96 387.96H389.102V339H387.96H386.817V387.96H387.96ZM387.96 339V340.142H396.12V339V337.858H387.96V339ZM396.12 339H397.262V167.641H396.12H394.977V339H396.12ZM396.12 167.641V166.499H387.96V167.641V168.784H396.12V167.641ZM387.96 167.641H389.102V151.321H387.96H386.817V167.641H387.96ZM387.96 151.321V150.179H371.64V151.321V152.464H387.96V151.321ZM371.64 151.321H370.497V159.481H371.64H372.782V151.321H371.64ZM371.64 159.481V158.339H363.48V159.481V160.624H371.64V159.481ZM363.48 159.481H362.338V167.641H363.48H364.622V159.481H363.48ZM363.48 167.641V166.499H355.32V167.641V168.784H363.48V167.641ZM355.32 167.641H354.178V265.561H355.32H356.462V167.641H355.32ZM355.32 265.561V266.703H363.48V265.561V264.418H355.32V265.561ZM363.48 265.561H362.338V273.721H363.48H364.622V265.561H363.48ZM363.48 273.721V274.863H371.64V273.721V272.578H363.48V273.721ZM371.64 273.721H370.497V290.04H371.64H372.782V273.721H371.64ZM371.64 290.04V288.898H363.48V290.04V291.183H371.64V290.04ZM363.48 290.04H362.338V298.2H363.48H364.622V290.04H363.48ZM363.48 298.2V297.058H347.16V298.2V299.343H363.48V298.2ZM347.16 298.2H346.018V306.36H347.16H348.302V298.2H347.16ZM347.16 306.36V305.218H330.84V306.36V307.503H347.16V306.36ZM330.84 306.36H331.983V298.2H330.84H329.698V306.36H330.84ZM485.847 273.721V272.578H484.705V273.721H485.847ZM494.007 273.721V274.863H495.15V273.721H494.007ZM494.007 167.641H495.15V166.499H494.007V167.641ZM477.687 167.641H476.545V168.784H477.687V167.641ZM477.687 151.321V150.179H476.545V151.321H477.687ZM485.847 151.321V152.464H486.99V151.321H485.847ZM485.847 143.161V142.019H484.705V143.161H485.847ZM502.167 143.161V144.304H503.31V143.161H502.167ZM502.167 135.001V133.859H501.025V135.001H502.167ZM518.487 135.001V136.144H519.629V135.001H518.487ZM518.487 126.842V125.699H517.345V126.842H518.487ZM526.647 126.842V127.984H527.789V126.842H526.647ZM526.647 118.682V117.539H525.505V118.682H526.647ZM551.127 118.682H552.269V117.539H551.127V118.682ZM551.127 126.842H549.984V127.984H551.127V126.842ZM559.287 126.842H560.429V125.699H559.287V126.842ZM559.287 135.001H558.144V136.144H559.287V135.001ZM575.607 135.001H576.749V133.859H575.607V135.001ZM575.607 143.161H574.464V144.304H575.607V143.161ZM583.767 143.161H584.909V142.019H583.767V143.161ZM583.767 151.321H582.624V152.464H583.767V151.321ZM591.926 151.321H593.069V150.179H591.926V151.321ZM591.926 159.481H590.784V160.624H591.926V159.481ZM600.086 159.481H601.229V158.339H600.086V159.481ZM600.086 167.641V168.784H601.229V167.641H600.086ZM591.926 167.641V166.499H590.784V167.641H591.926ZM591.926 175.801V176.944H593.069V175.801H591.926ZM583.767 175.801V174.659H582.624V175.801H583.767ZM583.767 192.121V193.263H584.909V192.121H583.767ZM575.607 192.121V190.979H574.464V192.121H575.607ZM575.607 200.281V201.423H576.749V200.281H575.607ZM567.447 200.281V199.139H566.304V200.281H567.447ZM567.447 208.441V209.583H568.589V208.441H567.447ZM559.287 208.441V207.299H558.144V208.441H559.287ZM559.287 216.601V217.743H560.429V216.601H559.287ZM551.127 216.601V215.459H549.984V216.601H551.127ZM551.127 224.761V225.903H552.269V224.761H551.127ZM542.967 224.761V223.618H541.824V224.761H542.967ZM542.967 241.081V242.223H544.109V241.081H542.967ZM534.807 241.081V239.938H533.665V241.081H534.807ZM534.807 257.401H533.665V258.543H534.807V257.401ZM542.967 257.401H544.109V256.258H542.967V257.401ZM542.967 265.561H541.824V266.703H542.967V265.561ZM551.127 265.561H552.269V264.418H551.127V265.561ZM551.127 273.721H549.984V274.863H551.127V273.721ZM575.607 273.721H576.749V272.578H575.607V273.721ZM575.607 281.88V283.023H576.749V281.88H575.607ZM567.447 281.88V280.738H566.304V281.88H567.447ZM567.447 290.04V291.183H568.589V290.04H567.447ZM559.287 290.04V288.898H558.144V290.04H559.287ZM559.287 298.2V299.343H560.429V298.2H559.287ZM551.127 298.2V297.058H549.984V298.2H551.127ZM551.127 306.36V307.503H552.269V306.36H551.127ZM526.647 306.36H525.505V307.503H526.647V306.36ZM526.647 298.2H527.789V297.058H526.647V298.2ZM502.167 298.2H501.025V299.343H502.167V298.2ZM502.167 290.04H503.31V288.898H502.167V290.04ZM485.847 290.04H484.705V291.183H485.847V290.04ZM534.807 216.601H533.665V217.743H534.807V216.601ZM542.967 216.601V217.743H544.109V216.601H542.967ZM542.967 208.441V207.299H541.824V208.441H542.967ZM551.127 208.441V209.583H552.269V208.441H551.127ZM551.127 192.121V190.979H549.984V192.121H551.127ZM559.287 192.121V193.263H560.429V192.121H559.287ZM559.287 175.801H560.429V174.659H559.287V175.801ZM551.127 175.801H549.984V176.944H551.127V175.801ZM551.127 167.641H552.269V166.499H551.127V167.641ZM534.807 167.641V166.499H533.665V167.641H534.807ZM534.807 175.801V176.944H535.949V175.801H534.807ZM526.647 175.801V174.659H525.505V175.801H526.647ZM526.647 208.441H525.505V209.583H526.647V208.441ZM534.807 208.441H535.949V207.299H534.807V208.441ZM485.847 273.721V274.863H494.007V273.721V272.578H485.847V273.721ZM494.007 273.721H495.15V167.641H494.007H492.865V273.721H494.007ZM494.007 167.641V166.499H477.687V167.641V168.784H494.007V167.641ZM477.687 167.641H478.83V151.321H477.687H476.545V167.641H477.687ZM477.687 151.321V152.464H485.847V151.321V150.179H477.687V151.321ZM485.847 151.321H486.99V143.161H485.847H484.705V151.321H485.847ZM485.847 143.161V144.304H502.167V143.161V142.019H485.847V143.161ZM502.167 143.161H503.31V135.001H502.167H501.025V143.161H502.167ZM502.167 135.001V136.144H518.487V135.001V133.859H502.167V135.001ZM518.487 135.001H519.629V126.842H518.487H517.345V135.001H518.487ZM518.487 126.842V127.984H526.647V126.842V125.699H518.487V126.842ZM526.647 126.842H527.789V118.682H526.647H525.505V126.842H526.647ZM526.647 118.682V119.824H551.127V118.682V117.539H526.647V118.682ZM551.127 118.682H549.984V126.842H551.127H552.269V118.682H551.127ZM551.127 126.842V127.984H559.287V126.842V125.699H551.127V126.842ZM559.287 126.842H558.144V135.001H559.287H560.429V126.842H559.287ZM559.287 135.001V136.144H575.607V135.001V133.859H559.287V135.001ZM575.607 135.001H574.464V143.161H575.607H576.749V135.001H575.607ZM575.607 143.161V144.304H583.767V143.161V142.019H575.607V143.161ZM583.767 143.161H582.624V151.321H583.767H584.909V143.161H583.767ZM583.767 151.321V152.464H591.926V151.321V150.179H583.767V151.321ZM591.926 151.321H590.784V159.481H591.926H593.069V151.321H591.926ZM591.926 159.481V160.624H600.086V159.481V158.339H591.926V159.481ZM600.086 159.481H598.944V167.641H600.086H601.229V159.481H600.086ZM600.086 167.641V166.499H591.926V167.641V168.784H600.086V167.641ZM591.926 167.641H590.784V175.801H591.926H593.069V167.641H591.926ZM591.926 175.801V174.659H583.767V175.801V176.944H591.926V175.801ZM583.767 175.801H582.624V192.121H583.767H584.909V175.801H583.767ZM583.767 192.121V190.979H575.607V192.121V193.263H583.767V192.121ZM575.607 192.121H574.464V200.281H575.607H576.749V192.121H575.607ZM575.607 200.281V199.139H567.447V200.281V201.423H575.607V200.281ZM567.447 200.281H566.304V208.441H567.447H568.589V200.281H567.447ZM567.447 208.441V207.299H559.287V208.441V209.583H567.447V208.441ZM559.287 208.441H558.144V216.601H559.287H560.429V208.441H559.287ZM559.287 216.601V215.459H551.127V216.601V217.743H559.287V216.601ZM551.127 216.601H549.984V224.761H551.127H552.269V216.601H551.127ZM551.127 224.761V223.618H542.967V224.761V225.903H551.127V224.761ZM542.967 224.761H541.824V241.081H542.967H544.109V224.761H542.967ZM542.967 241.081V239.938H534.807V241.081V242.223H542.967V241.081ZM534.807 241.081H533.665V257.401H534.807H535.949V241.081H534.807ZM534.807 257.401V258.543H542.967V257.401V256.258H534.807V257.401ZM542.967 257.401H541.824V265.561H542.967H544.109V257.401H542.967ZM542.967 265.561V266.703H551.127V265.561V264.418H542.967V265.561ZM551.127 265.561H549.984V273.721H551.127H552.269V265.561H551.127ZM551.127 273.721V274.863H575.607V273.721V272.578H551.127V273.721ZM575.607 273.721H574.464V281.88H575.607H576.749V273.721H575.607ZM575.607 281.88V280.738H567.447V281.88V283.023H575.607V281.88ZM567.447 281.88H566.304V290.04H567.447H568.589V281.88H567.447ZM567.447 290.04V288.898H559.287V290.04V291.183H567.447V290.04ZM559.287 290.04H558.144V298.2H559.287H560.429V290.04H559.287ZM559.287 298.2V297.058H551.127V298.2V299.343H559.287V298.2ZM551.127 298.2H549.984V306.36H551.127H552.269V298.2H551.127ZM551.127 306.36V305.218H526.647V306.36V307.503H551.127V306.36ZM526.647 306.36H527.789V298.2H526.647H525.505V306.36H526.647ZM526.647 298.2V297.058H502.167V298.2V299.343H526.647V298.2ZM502.167 298.2H503.31V290.04H502.167H501.025V298.2H502.167ZM502.167 290.04V288.898H485.847V290.04V291.183H502.167V290.04ZM485.847 290.04H486.99V273.721H485.847H484.705V290.04H485.847ZM534.807 216.601V217.743H542.967V216.601V215.459H534.807V216.601ZM542.967 216.601H544.109V208.441H542.967H541.824V216.601H542.967ZM542.967 208.441V209.583H551.127V208.441V207.299H542.967V208.441ZM551.127 208.441H552.269V192.121H551.127H549.984V208.441H551.127ZM551.127 192.121V193.263H559.287V192.121V190.979H551.127V192.121ZM559.287 192.121H560.429V175.801H559.287H558.144V192.121H559.287ZM559.287 175.801V174.659H551.127V175.801V176.944H559.287V175.801ZM551.127 175.801H552.269V167.641H551.127H549.984V175.801H551.127ZM551.127 167.641V166.499H534.807V167.641V168.784H551.127V167.641ZM534.807 167.641H533.665V175.801H534.807H535.949V167.641H534.807ZM534.807 175.801V174.659H526.647V175.801V176.944H534.807V175.801ZM526.647 175.801H525.505V208.441H526.647H527.789V175.801H526.647ZM526.647 208.441V209.583H534.807V208.441V207.299H526.647V208.441ZM534.807 208.441H533.665V216.601H534.807H535.949V208.441H534.807ZM698.07 273.721H696.927V274.863H698.07V273.721ZM706.229 273.721H707.372V272.578H706.229V273.721ZM706.229 290.04V291.183H707.372V290.04H706.229ZM698.07 290.04V288.898H696.927V290.04H698.07ZM698.07 306.36V307.503H699.212V306.36H698.07ZM665.43 306.36H664.287V307.503H665.43V306.36ZM665.43 298.2H666.572V297.058H665.43V298.2ZM640.95 298.2H639.808V299.343H640.95V298.2ZM640.95 290.04H642.092V288.898H640.95V290.04ZM632.79 290.04H631.648V291.183H632.79V290.04ZM632.79 273.721V272.578H631.648V273.721H632.79ZM640.95 273.721V274.863H642.092V273.721H640.95ZM640.95 167.641H642.092V166.499H640.95V167.641ZM632.79 167.641H631.648V168.784H632.79V167.641ZM632.79 159.481H633.932V158.339H632.79V159.481ZM624.63 159.481H623.488V160.624H624.63V159.481ZM624.63 151.321H625.772V150.179H624.63V151.321ZM616.47 151.321H615.328V152.464H616.47V151.321ZM616.47 135.001V133.859H615.328V135.001H616.47ZM624.63 135.001V136.144H625.772V135.001H624.63ZM624.63 126.842V125.699H623.488V126.842H624.63ZM632.79 126.842V127.984H633.932V126.842H632.79ZM632.79 118.682V117.539H631.648V118.682H632.79ZM649.11 118.682H650.252V117.539H649.11V118.682ZM649.11 126.842H647.968V127.984H649.11V126.842ZM657.27 126.842H658.412V125.699H657.27V126.842ZM657.27 135.001H656.127V136.144H657.27V135.001ZM673.59 135.001H674.732V133.859H673.59V135.001ZM673.59 143.161H672.447V144.304H673.59V143.161ZM681.75 143.161H682.892V142.019H681.75V143.161ZM681.75 151.321H680.607V152.464H681.75V151.321ZM689.91 151.321H691.052V150.179H689.91V151.321ZM689.91 159.481V160.624H691.052V159.481H689.91ZM681.75 159.481V158.339H680.607V159.481H681.75ZM681.75 257.401H680.607V258.543H681.75V257.401ZM689.91 257.401H691.052V256.258H689.91V257.401ZM689.91 265.561H688.767V266.703H689.91V265.561ZM698.07 265.561H699.212V264.418H698.07V265.561ZM689.91 143.161V142.019H688.767V143.161H689.91ZM698.07 143.161V144.304H699.212V143.161H698.07ZM698.07 135.001V133.859H696.927V135.001H698.07ZM706.229 135.001V136.144H707.372V135.001H706.229ZM706.229 126.842V125.699H705.087V126.842H706.229ZM714.389 126.842V127.984H715.532V126.842H714.389ZM714.389 118.682V117.539H713.247V118.682H714.389ZM730.709 118.682H731.852V117.539H730.709V118.682ZM730.709 126.842H729.567V127.984H730.709V126.842ZM738.869 126.842H740.012V125.699H738.869V126.842ZM738.869 135.001H737.727V136.144H738.869V135.001ZM747.029 135.001H748.172V133.859H747.029V135.001ZM747.029 143.161H745.887V144.304H747.029V143.161ZM755.189 143.161H756.332V142.019H755.189V143.161ZM755.189 151.321V152.464H756.332V151.321H755.189ZM747.029 151.321V150.179H745.887V151.321H747.029ZM747.029 159.481V160.624H748.172V159.481H747.029ZM738.869 159.481V158.339H737.727V159.481H738.869ZM738.869 167.641V168.784H740.012V167.641H738.869ZM730.709 167.641V166.499H729.567V167.641H730.709ZM730.709 175.801V176.944H731.852V175.801H730.709ZM714.389 175.801H713.247V176.944H714.389V175.801ZM714.389 167.641H715.532V166.499H714.389V167.641ZM706.229 167.641H705.087V168.784H706.229V167.641ZM706.229 159.481H707.372V158.339H706.229V159.481ZM698.07 159.481H696.927V160.624H698.07V159.481ZM698.07 151.321H699.212V150.179H698.07V151.321ZM689.91 151.321H688.767V152.464H689.91V151.321ZM698.07 273.721V274.863H706.229V273.721V272.578H698.07V273.721ZM706.229 273.721H705.087V290.04H706.229H707.372V273.721H706.229ZM706.229 290.04V288.898H698.07V290.04V291.183H706.229V290.04ZM698.07 290.04H696.927V306.36H698.07H699.212V290.04H698.07ZM698.07 306.36V305.218H665.43V306.36V307.503H698.07V306.36ZM665.43 306.36H666.572V298.2H665.43H664.287V306.36H665.43ZM665.43 298.2V297.058H640.95V298.2V299.343H665.43V298.2ZM640.95 298.2H642.092V290.04H640.95H639.808V298.2H640.95ZM640.95 290.04V288.898H632.79V290.04V291.183H640.95V290.04ZM632.79 290.04H633.932V273.721H632.79H631.648V290.04H632.79ZM632.79 273.721V274.863H640.95V273.721V272.578H632.79V273.721ZM640.95 273.721H642.092V167.641H640.95H639.808V273.721H640.95ZM640.95 167.641V166.499H632.79V167.641V168.784H640.95V167.641ZM632.79 167.641H633.932V159.481H632.79H631.648V167.641H632.79ZM632.79 159.481V158.339H624.63V159.481V160.624H632.79V159.481ZM624.63 159.481H625.772V151.321H624.63H623.488V159.481H624.63ZM624.63 151.321V150.179H616.47V151.321V152.464H624.63V151.321ZM616.47 151.321H617.612V135.001H616.47H615.328V151.321H616.47ZM616.47 135.001V136.144H624.63V135.001V133.859H616.47V135.001ZM624.63 135.001H625.772V126.842H624.63H623.488V135.001H624.63ZM624.63 126.842V127.984H632.79V126.842V125.699H624.63V126.842ZM632.79 126.842H633.932V118.682H632.79H631.648V126.842H632.79ZM632.79 118.682V119.824H649.11V118.682V117.539H632.79V118.682ZM649.11 118.682H647.968V126.842H649.11H650.252V118.682H649.11ZM649.11 126.842V127.984H657.27V126.842V125.699H649.11V126.842ZM657.27 126.842H656.127V135.001H657.27H658.412V126.842H657.27ZM657.27 135.001V136.144H673.59V135.001V133.859H657.27V135.001ZM673.59 135.001H672.447V143.161H673.59H674.732V135.001H673.59ZM673.59 143.161V144.304H681.75V143.161V142.019H673.59V143.161ZM681.75 143.161H680.607V151.321H681.75H682.892V143.161H681.75ZM681.75 151.321V152.464H689.91V151.321V150.179H681.75V151.321ZM689.91 151.321H688.767V159.481H689.91H691.052V151.321H689.91ZM689.91 159.481V158.339H681.75V159.481V160.624H689.91V159.481ZM681.75 159.481H680.607V257.401H681.75H682.892V159.481H681.75ZM681.75 257.401V258.543H689.91V257.401V256.258H681.75V257.401ZM689.91 257.401H688.767V265.561H689.91H691.052V257.401H689.91ZM689.91 265.561V266.703H698.07V265.561V264.418H689.91V265.561ZM698.07 265.561H696.927V273.721H698.07H699.212V265.561H698.07ZM689.91 143.161V144.304H698.07V143.161V142.019H689.91V143.161ZM698.07 143.161H699.212V135.001H698.07H696.927V143.161H698.07ZM698.07 135.001V136.144H706.229V135.001V133.859H698.07V135.001ZM706.229 135.001H707.372V126.842H706.229H705.087V135.001H706.229ZM706.229 126.842V127.984H714.389V126.842V125.699H706.229V126.842ZM714.389 126.842H715.532V118.682H714.389H713.247V126.842H714.389ZM714.389 118.682V119.824H730.709V118.682V117.539H714.389V118.682ZM730.709 118.682H729.567V126.842H730.709H731.852V118.682H730.709ZM730.709 126.842V127.984H738.869V126.842V125.699H730.709V126.842ZM738.869 126.842H737.727V135.001H738.869H740.012V126.842H738.869ZM738.869 135.001V136.144H747.029V135.001V133.859H738.869V135.001ZM747.029 135.001H745.887V143.161H747.029H748.172V135.001H747.029ZM747.029 143.161V144.304H755.189V143.161V142.019H747.029V143.161ZM755.189 143.161H754.047V151.321H755.189H756.332V143.161H755.189ZM755.189 151.321V150.179H747.029V151.321V152.464H755.189V151.321ZM747.029 151.321H745.887V159.481H747.029H748.172V151.321H747.029ZM747.029 159.481V158.339H738.869V159.481V160.624H747.029V159.481ZM738.869 159.481H737.727V167.641H738.869H740.012V159.481H738.869ZM738.869 167.641V166.499H730.709V167.641V168.784H738.869V167.641ZM730.709 167.641H729.567V175.801H730.709H731.852V167.641H730.709ZM730.709 175.801V174.659H714.389V175.801V176.944H730.709V175.801ZM714.389 175.801H715.532V167.641H714.389H713.247V175.801H714.389ZM714.389 167.641V166.499H706.229V167.641V168.784H714.389V167.641ZM706.229 167.641H707.372V159.481H706.229H705.087V167.641H706.229ZM706.229 159.481V158.339H698.07V159.481V160.624H706.229V159.481ZM698.07 159.481H699.212V151.321H698.07H696.927V159.481H698.07ZM698.07 151.321V150.179H689.91V151.321V152.464H698.07V151.321ZM689.91 151.321H691.052V143.161H689.91H688.767V151.321H689.91ZM910.164 86.0418H911.307V84.8994H910.164V86.0418ZM893.844 86.0418H892.702V87.1842H893.844V86.0418ZM893.844 69.7219V68.5795H892.702V69.7219H893.844ZM902.004 69.7219V70.8643H903.147V69.7219H902.004ZM902.004 53.4021V52.2597H900.862V53.4021H902.004ZM910.164 53.4021V54.5444H911.307V53.4021H910.164ZM910.164 45.2421V44.0997H909.022V45.2421H910.164ZM926.484 45.2421H927.627V44.0997H926.484V45.2421ZM926.484 53.4021H925.342V54.5444H926.484V53.4021ZM942.804 53.4021H943.947V52.2597H942.804V53.4021ZM942.804 61.562H941.662V62.7044H942.804V61.562ZM950.964 61.562H952.106V60.4196H950.964V61.562ZM950.964 86.0418V87.1842H952.106V86.0418H950.964ZM942.804 86.0418V84.8994H941.662V86.0418H942.804ZM942.804 102.362V103.504H943.947V102.362H942.804ZM926.484 102.362H925.342V103.504H926.484V102.362ZM926.484 94.2018H927.627V93.0594H926.484V94.2018ZM910.164 94.2018H909.022V95.3442H910.164V94.2018ZM926.484 118.682H927.627V117.539H926.484V118.682ZM926.484 126.842H925.342V127.984H926.484V126.842ZM942.804 126.842H943.947V125.699H942.804V126.842ZM942.804 135.001H941.662V136.144H942.804V135.001ZM959.124 135.001H960.266V133.859H959.124V135.001ZM959.124 151.321V152.464H960.266V151.321H959.124ZM950.964 151.321V150.179H949.822V151.321H950.964ZM950.964 159.481V160.624H952.106V159.481H950.964ZM942.804 159.481V158.339H941.662V159.481H942.804ZM942.804 167.641V168.784H943.947V167.641H942.804ZM934.644 167.641V166.499H933.502V167.641H934.644ZM934.644 249.241H933.502V250.383H934.644V249.241ZM942.804 249.241H943.947V248.098H942.804V249.241ZM942.804 265.561H941.662V266.703H942.804V265.561ZM950.964 265.561H952.106V264.418H950.964V265.561ZM950.964 273.721H949.822V274.863H950.964V273.721ZM959.124 273.721H960.266V272.578H959.124V273.721ZM959.124 281.88V283.023H960.266V281.88H959.124ZM950.964 281.88V280.738H949.822V281.88H950.964ZM950.964 290.04V291.183H952.106V290.04H950.964ZM942.804 290.04V288.898H941.662V290.04H942.804ZM942.804 306.36V307.503H943.947V306.36H942.804ZM926.484 306.36H925.342V307.503H926.484V306.36ZM926.484 298.2H927.627V297.058H926.484V298.2ZM910.164 298.2H909.022V299.343H910.164V298.2ZM910.164 290.04H911.307V288.898H910.164V290.04ZM885.684 290.04H884.542V291.183H885.684V290.04ZM885.684 281.88H886.827V280.738H885.684V281.88ZM877.525 281.88H876.382V283.023H877.525V281.88ZM877.525 273.721V272.578H876.382V273.721H877.525ZM885.684 273.721V274.863H886.827V273.721H885.684ZM885.684 257.401V256.258H884.542V257.401H885.684ZM893.844 257.401V258.543H894.987V257.401H893.844ZM893.844 167.641H894.987V166.499H893.844V167.641ZM885.684 167.641H884.542V168.784H885.684V167.641ZM885.684 151.321H886.827V150.179H885.684V151.321ZM877.525 151.321H876.382V152.464H877.525V151.321ZM877.525 143.161V142.019H876.382V143.161H877.525ZM885.684 143.161V144.304H886.827V143.161H885.684ZM885.684 135.001V133.859H884.542V135.001H885.684ZM893.844 135.001V136.144H894.987V135.001H893.844ZM893.844 126.842V125.699H892.702V126.842H893.844ZM902.004 126.842V127.984H903.147V126.842H902.004ZM902.004 118.682V117.539H900.862V118.682H902.004ZM910.164 86.0418V84.8994H893.844V86.0418V87.1842H910.164V86.0418ZM893.844 86.0418H894.987V69.7219H893.844H892.702V86.0418H893.844ZM893.844 69.7219V70.8643H902.004V69.7219V68.5795H893.844V69.7219ZM902.004 69.7219H903.147V53.4021H902.004H900.862V69.7219H902.004ZM902.004 53.4021V54.5444H910.164V53.4021V52.2597H902.004V53.4021ZM910.164 53.4021H911.307V45.2421H910.164H909.022V53.4021H910.164ZM910.164 45.2421V46.3845H926.484V45.2421V44.0997H910.164V45.2421ZM926.484 45.2421H925.342V53.4021H926.484H927.627V45.2421H926.484ZM926.484 53.4021V54.5444H942.804V53.4021V52.2597H926.484V53.4021ZM942.804 53.4021H941.662V61.562H942.804H943.947V53.4021H942.804ZM942.804 61.562V62.7044H950.964V61.562V60.4196H942.804V61.562ZM950.964 61.562H949.822V86.0418H950.964H952.106V61.562H950.964ZM950.964 86.0418V84.8994H942.804V86.0418V87.1842H950.964V86.0418ZM942.804 86.0418H941.662V102.362H942.804H943.947V86.0418H942.804ZM942.804 102.362V101.219H926.484V102.362V103.504H942.804V102.362ZM926.484 102.362H927.627V94.2018H926.484H925.342V102.362H926.484ZM926.484 94.2018V93.0594H910.164V94.2018V95.3442H926.484V94.2018ZM910.164 94.2018H911.307V86.0418H910.164H909.022V94.2018H910.164ZM926.484 118.682H925.342V126.842H926.484H927.627V118.682H926.484ZM926.484 126.842V127.984H942.804V126.842V125.699H926.484V126.842ZM942.804 126.842H941.662V135.001H942.804H943.947V126.842H942.804ZM942.804 135.001V136.144H959.124V135.001V133.859H942.804V135.001ZM959.124 135.001H957.982V151.321H959.124H960.266V135.001H959.124ZM959.124 151.321V150.179H950.964V151.321V152.464H959.124V151.321ZM950.964 151.321H949.822V159.481H950.964H952.106V151.321H950.964ZM950.964 159.481V158.339H942.804V159.481V160.624H950.964V159.481ZM942.804 159.481H941.662V167.641H942.804H943.947V159.481H942.804ZM942.804 167.641V166.499H934.644V167.641V168.784H942.804V167.641ZM934.644 167.641H933.502V249.241H934.644H935.787V167.641H934.644ZM934.644 249.241V250.383H942.804V249.241V248.098H934.644V249.241ZM942.804 249.241H941.662V265.561H942.804H943.947V249.241H942.804ZM942.804 265.561V266.703H950.964V265.561V264.418H942.804V265.561ZM950.964 265.561H949.822V273.721H950.964H952.106V265.561H950.964ZM950.964 273.721V274.863H959.124V273.721V272.578H950.964V273.721ZM959.124 273.721H957.982V281.88H959.124H960.266V273.721H959.124ZM959.124 281.88V280.738H950.964V281.88V283.023H959.124V281.88ZM950.964 281.88H949.822V290.04H950.964H952.106V281.88H950.964ZM950.964 290.04V288.898H942.804V290.04V291.183H950.964V290.04ZM942.804 290.04H941.662V306.36H942.804H943.947V290.04H942.804ZM942.804 306.36V305.218H926.484V306.36V307.503H942.804V306.36ZM926.484 306.36H927.627V298.2H926.484H925.342V306.36H926.484ZM926.484 298.2V297.058H910.164V298.2V299.343H926.484V298.2ZM910.164 298.2H911.307V290.04H910.164H909.022V298.2H910.164ZM910.164 290.04V288.898H885.684V290.04V291.183H910.164V290.04ZM885.684 290.04H886.827V281.88H885.684H884.542V290.04H885.684ZM885.684 281.88V280.738H877.525V281.88V283.023H885.684V281.88ZM877.525 281.88H878.667V273.721H877.525H876.382V281.88H877.525ZM877.525 273.721V274.863H885.684V273.721V272.578H877.525V273.721ZM885.684 273.721H886.827V257.401H885.684H884.542V273.721H885.684ZM885.684 257.401V258.543H893.844V257.401V256.258H885.684V257.401ZM893.844 257.401H894.987V167.641H893.844H892.702V257.401H893.844ZM893.844 167.641V166.499H885.684V167.641V168.784H893.844V167.641ZM885.684 167.641H886.827V151.321H885.684H884.542V167.641H885.684ZM885.684 151.321V150.179H877.525V151.321V152.464H885.684V151.321ZM877.525 151.321H878.667V143.161H877.525H876.382V151.321H877.525ZM877.525 143.161V144.304H885.684V143.161V142.019H877.525V143.161ZM885.684 143.161H886.827V135.001H885.684H884.542V143.161H885.684ZM885.684 135.001V136.144H893.844V135.001V133.859H885.684V135.001ZM893.844 135.001H894.987V126.842H893.844H892.702V135.001H893.844ZM893.844 126.842V127.984H902.004V126.842V125.699H893.844V126.842ZM902.004 126.842H903.147V118.682H902.004H900.862V126.842H902.004ZM902.004 118.682V119.824H926.484V118.682V117.539H902.004V118.682ZM991.796 290.04H992.938V288.898H991.796V290.04ZM983.636 290.04H982.493V291.183H983.636V290.04ZM983.636 281.88V280.738H982.493V281.88H983.636ZM991.796 281.88V283.023H992.938V281.88H991.796ZM991.796 257.401V256.258H990.653V257.401H991.796ZM999.956 257.401V258.543H1001.1V257.401H999.956ZM999.956 249.241V248.098H998.813V249.241H999.956ZM1016.28 249.241H1017.42V248.098H1016.28V249.241ZM1016.28 257.401H1015.13V258.543H1016.28V257.401ZM1032.6 257.401H1033.74V256.258H1032.6V257.401ZM1032.6 265.561H1031.45V266.703H1032.6V265.561ZM1040.76 265.561H1041.9V264.418H1040.76V265.561ZM1040.76 273.721H1039.61V274.863H1040.76V273.721ZM1048.92 273.721H1050.06V272.578H1048.92V273.721ZM1048.92 281.88V283.023H1050.06V281.88H1048.92ZM1040.76 281.88V280.738H1039.61V281.88H1040.76ZM1040.76 298.2V299.343H1041.9V298.2H1040.76ZM1032.6 298.2V297.058H1031.45V298.2H1032.6ZM1032.6 306.36V307.503H1033.74V306.36H1032.6ZM1008.12 306.36H1006.97V307.503H1008.12V306.36ZM1008.12 298.2H1009.26V297.058H1008.12V298.2ZM991.796 298.2H990.653V299.343H991.796V298.2ZM991.796 290.04V288.898H983.636V290.04V291.183H991.796V290.04ZM983.636 290.04H984.778V281.88H983.636H982.493V290.04H983.636ZM983.636 281.88V283.023H991.796V281.88V280.738H983.636V281.88ZM991.796 281.88H992.938V257.401H991.796H990.653V281.88H991.796ZM991.796 257.401V258.543H999.956V257.401V256.258H991.796V257.401ZM999.956 257.401H1001.1V249.241H999.956H998.813V257.401H999.956ZM999.956 249.241V250.383H1016.28V249.241V248.098H999.956V249.241ZM1016.28 249.241H1015.13V257.401H1016.28H1017.42V249.241H1016.28ZM1016.28 257.401V258.543H1032.6V257.401V256.258H1016.28V257.401ZM1032.6 257.401H1031.45V265.561H1032.6H1033.74V257.401H1032.6ZM1032.6 265.561V266.703H1040.76V265.561V264.418H1032.6V265.561ZM1040.76 265.561H1039.61V273.721H1040.76H1041.9V265.561H1040.76ZM1040.76 273.721V274.863H1048.92V273.721V272.578H1040.76V273.721ZM1048.92 273.721H1047.77V281.88H1048.92H1050.06V273.721H1048.92ZM1048.92 281.88V280.738H1040.76V281.88V283.023H1048.92V281.88ZM1040.76 281.88H1039.61V298.2H1040.76H1041.9V281.88H1040.76ZM1040.76 298.2V297.058H1032.6V298.2V299.343H1040.76V298.2ZM1032.6 298.2H1031.45V306.36H1032.6H1033.74V298.2H1032.6ZM1032.6 306.36V305.218H1008.12V306.36V307.503H1032.6V306.36ZM1008.12 306.36H1009.26V298.2H1008.12H1006.97V306.36H1008.12ZM1008.12 298.2V297.058H991.796V298.2V299.343H1008.12V298.2ZM991.796 298.2H992.938V290.04H991.796H990.653V298.2H991.796ZM1081.62 298.2H1082.76V297.058H1081.62V298.2ZM1073.46 298.2H1072.32V299.343H1073.46V298.2ZM1073.46 281.88H1074.6V280.738H1073.46V281.88ZM1065.3 281.88H1064.16V283.023H1065.3V281.88ZM1065.3 273.721H1066.44V272.578H1065.3V273.721ZM1057.14 273.721H1056V274.863H1057.14V273.721ZM1057.14 257.401V256.258H1056V257.401H1057.14ZM1065.3 257.401V258.543H1066.44V257.401H1065.3ZM1065.3 249.241V248.098H1064.16V249.241H1065.3ZM1073.46 249.241V250.383H1074.6V249.241H1073.46ZM1073.46 167.641H1074.6V166.499H1073.46V167.641ZM1065.3 167.641H1064.16V168.784H1065.3V167.641ZM1065.3 159.481H1066.44V158.339H1065.3V159.481ZM1057.14 159.481H1056V160.624H1057.14V159.481ZM1057.14 143.161V142.019H1056V143.161H1057.14ZM1065.3 143.161V144.304H1066.44V143.161H1065.3ZM1065.3 126.842V125.699H1064.16V126.842H1065.3ZM1073.46 126.842V127.984H1074.6V126.842H1073.46ZM1073.46 118.682V117.539H1072.32V118.682H1073.46ZM1089.78 118.682H1090.92V117.539H1089.78V118.682ZM1089.78 126.842H1088.64V127.984H1089.78V126.842ZM1097.94 126.842H1099.08V125.699H1097.94V126.842ZM1097.94 135.001H1096.8V136.144H1097.94V135.001ZM1106.1 135.001H1107.24V133.859H1106.1V135.001ZM1106.1 143.161H1104.96V144.304H1106.1V143.161ZM1114.26 143.161H1115.4V142.019H1114.26V143.161ZM1114.26 151.321H1113.12V152.464H1114.26V151.321ZM1122.42 151.321H1123.56V150.179H1122.42V151.321ZM1122.42 159.481H1121.28V160.624H1122.42V159.481ZM1130.58 159.481V160.624H1131.72V159.481H1130.58ZM1130.58 151.321V150.179H1129.44V151.321H1130.58ZM1138.74 151.321V152.464H1139.88V151.321H1138.74ZM1138.74 143.161V142.019H1137.6V143.161H1138.74ZM1146.9 143.161V144.304H1148.04V143.161H1146.9ZM1146.9 135.001V133.859H1145.76V135.001H1146.9ZM1155.06 135.001V136.144H1156.2V135.001H1155.06ZM1155.06 126.842V125.699H1153.92V126.842H1155.06ZM1163.22 126.842V127.984H1164.36V126.842H1163.22ZM1163.22 118.682V117.539H1162.08V118.682H1163.22ZM1179.54 118.682H1180.68V117.539H1179.54V118.682ZM1179.54 126.842H1178.4V127.984H1179.54V126.842ZM1195.86 126.842H1197V125.699H1195.86V126.842ZM1195.86 143.161H1194.72V144.304H1195.86V143.161ZM1212.18 143.161H1213.32V142.019H1212.18V143.161ZM1212.18 151.321H1211.04V152.464H1212.18V151.321ZM1220.34 151.321H1221.48V150.179H1220.34V151.321ZM1220.34 167.641V168.784H1221.48V167.641H1220.34ZM1212.18 167.641V166.499H1211.04V167.641H1212.18ZM1212.18 175.801V176.944H1213.32V175.801H1212.18ZM1204.02 175.801V174.659H1202.88V175.801H1204.02ZM1204.02 257.401H1202.88V258.543H1204.02V257.401ZM1212.18 257.401H1213.32V256.258H1212.18V257.401ZM1212.18 265.561H1211.04V266.703H1212.18V265.561ZM1220.34 265.561H1221.48V264.418H1220.34V265.561ZM1220.34 273.721V274.863H1221.48V273.721H1220.34ZM1212.18 273.721V272.578H1211.04V273.721H1212.18ZM1212.18 281.88V283.023H1213.32V281.88H1212.18ZM1204.02 281.88V280.738H1202.88V281.88H1204.02ZM1204.02 290.04V291.183H1205.16V290.04H1204.02ZM1195.86 290.04V288.898H1194.72V290.04H1195.86ZM1195.86 306.36V307.503H1197V306.36H1195.86ZM1179.54 306.36H1178.4V307.503H1179.54V306.36ZM1179.54 298.2H1180.68V297.058H1179.54V298.2ZM1171.38 298.2H1170.24V299.343H1171.38V298.2ZM1171.38 290.04H1172.52V288.898H1171.38V290.04ZM1163.22 290.04H1162.08V291.183H1163.22V290.04ZM1163.22 281.88H1164.36V280.738H1163.22V281.88ZM1155.06 281.88H1153.92V283.023H1155.06V281.88ZM1155.06 273.721H1156.2V272.578H1155.06V273.721ZM1146.9 273.721H1145.76V274.863H1146.9V273.721ZM1146.9 265.561V264.418H1145.76V265.561H1146.9ZM1155.06 265.561V266.703H1156.2V265.561H1155.06ZM1155.06 249.241V248.098H1153.92V249.241H1155.06ZM1163.22 249.241V250.383H1164.36V249.241H1163.22ZM1163.22 183.961H1164.36V182.819H1163.22V183.961ZM1155.06 183.961H1153.92V185.104H1155.06V183.961ZM1155.06 175.801H1156.2V174.659H1155.06V175.801ZM1146.9 175.801H1145.76V176.944H1146.9V175.801ZM1146.9 167.641H1148.04V166.499H1146.9V167.641ZM1130.58 167.641V166.499H1129.44V167.641H1130.58ZM1130.58 175.801V176.944H1131.72V175.801H1130.58ZM1122.42 175.801V174.659H1121.28V175.801H1122.42ZM1122.42 200.281V201.423H1123.56V200.281H1122.42ZM1114.26 200.281V199.139H1113.12V200.281H1114.26ZM1114.26 257.401H1113.12V258.543H1114.26V257.401ZM1122.42 257.401H1123.56V256.258H1122.42V257.401ZM1122.42 265.561H1121.28V266.703H1122.42V265.561ZM1130.58 265.561H1131.72V264.418H1130.58V265.561ZM1130.58 273.721V274.863H1131.72V273.721H1130.58ZM1122.42 273.721V272.578H1121.28V273.721H1122.42ZM1122.42 281.88V283.023H1123.56V281.88H1122.42ZM1114.26 281.88V280.738H1113.12V281.88H1114.26ZM1114.26 290.04V291.183H1115.4V290.04H1114.26ZM1106.1 290.04V288.898H1104.96V290.04H1106.1ZM1106.1 298.2V299.343H1107.24V298.2H1106.1ZM1097.94 298.2V297.058H1096.8V298.2H1097.94ZM1097.94 306.36V307.503H1099.08V306.36H1097.94ZM1081.62 306.36H1080.48V307.503H1081.62V306.36ZM1081.62 298.2V297.058H1073.46V298.2V299.343H1081.62V298.2ZM1073.46 298.2H1074.6V281.88H1073.46H1072.32V298.2H1073.46ZM1073.46 281.88V280.738H1065.3V281.88V283.023H1073.46V281.88ZM1065.3 281.88H1066.44V273.721H1065.3H1064.16V281.88H1065.3ZM1065.3 273.721V272.578H1057.14V273.721V274.863H1065.3V273.721ZM1057.14 273.721H1058.28V257.401H1057.14H1056V273.721H1057.14ZM1057.14 257.401V258.543H1065.3V257.401V256.258H1057.14V257.401ZM1065.3 257.401H1066.44V249.241H1065.3H1064.16V257.401H1065.3ZM1065.3 249.241V250.383H1073.46V249.241V248.098H1065.3V249.241ZM1073.46 249.241H1074.6V167.641H1073.46H1072.32V249.241H1073.46ZM1073.46 167.641V166.499H1065.3V167.641V168.784H1073.46V167.641ZM1065.3 167.641H1066.44V159.481H1065.3H1064.16V167.641H1065.3ZM1065.3 159.481V158.339H1057.14V159.481V160.624H1065.3V159.481ZM1057.14 159.481H1058.28V143.161H1057.14H1056V159.481H1057.14ZM1057.14 143.161V144.304H1065.3V143.161V142.019H1057.14V143.161ZM1065.3 143.161H1066.44V126.842H1065.3H1064.16V143.161H1065.3ZM1065.3 126.842V127.984H1073.46V126.842V125.699H1065.3V126.842ZM1073.46 126.842H1074.6V118.682H1073.46H1072.32V126.842H1073.46ZM1073.46 118.682V119.824H1089.78V118.682V117.539H1073.46V118.682ZM1089.78 118.682H1088.64V126.842H1089.78H1090.92V118.682H1089.78ZM1089.78 126.842V127.984H1097.94V126.842V125.699H1089.78V126.842ZM1097.94 126.842H1096.8V135.001H1097.94H1099.08V126.842H1097.94ZM1097.94 135.001V136.144H1106.1V135.001V133.859H1097.94V135.001ZM1106.1 135.001H1104.96V143.161H1106.1H1107.24V135.001H1106.1ZM1106.1 143.161V144.304H1114.26V143.161V142.019H1106.1V143.161ZM1114.26 143.161H1113.12V151.321H1114.26H1115.4V143.161H1114.26ZM1114.26 151.321V152.464H1122.42V151.321V150.179H1114.26V151.321ZM1122.42 151.321H1121.28V159.481H1122.42H1123.56V151.321H1122.42ZM1122.42 159.481V160.624H1130.58V159.481V158.339H1122.42V159.481ZM1130.58 159.481H1131.72V151.321H1130.58H1129.44V159.481H1130.58ZM1130.58 151.321V152.464H1138.74V151.321V150.179H1130.58V151.321ZM1138.74 151.321H1139.88V143.161H1138.74H1137.6V151.321H1138.74ZM1138.74 143.161V144.304H1146.9V143.161V142.019H1138.74V143.161ZM1146.9 143.161H1148.04V135.001H1146.9H1145.76V143.161H1146.9ZM1146.9 135.001V136.144H1155.06V135.001V133.859H1146.9V135.001ZM1155.06 135.001H1156.2V126.842H1155.06H1153.92V135.001H1155.06ZM1155.06 126.842V127.984H1163.22V126.842V125.699H1155.06V126.842ZM1163.22 126.842H1164.36V118.682H1163.22H1162.08V126.842H1163.22ZM1163.22 118.682V119.824H1179.54V118.682V117.539H1163.22V118.682ZM1179.54 118.682H1178.4V126.842H1179.54H1180.68V118.682H1179.54ZM1179.54 126.842V127.984H1195.86V126.842V125.699H1179.54V126.842ZM1195.86 126.842H1194.72V143.161H1195.86H1197V126.842H1195.86ZM1195.86 143.161V144.304H1212.18V143.161V142.019H1195.86V143.161ZM1212.18 143.161H1211.04V151.321H1212.18H1213.32V143.161H1212.18ZM1212.18 151.321V152.464H1220.34V151.321V150.179H1212.18V151.321ZM1220.34 151.321H1219.2V167.641H1220.34H1221.48V151.321H1220.34ZM1220.34 167.641V166.499H1212.18V167.641V168.784H1220.34V167.641ZM1212.18 167.641H1211.04V175.801H1212.18H1213.32V167.641H1212.18ZM1212.18 175.801V174.659H1204.02V175.801V176.944H1212.18V175.801ZM1204.02 175.801H1202.88V257.401H1204.02H1205.16V175.801H1204.02ZM1204.02 257.401V258.543H1212.18V257.401V256.258H1204.02V257.401ZM1212.18 257.401H1211.04V265.561H1212.18H1213.32V257.401H1212.18ZM1212.18 265.561V266.703H1220.34V265.561V264.418H1212.18V265.561ZM1220.34 265.561H1219.2V273.721H1220.34H1221.48V265.561H1220.34ZM1220.34 273.721V272.578H1212.18V273.721V274.863H1220.34V273.721ZM1212.18 273.721H1211.04V281.88H1212.18H1213.32V273.721H1212.18ZM1212.18 281.88V280.738H1204.02V281.88V283.023H1212.18V281.88ZM1204.02 281.88H1202.88V290.04H1204.02H1205.16V281.88H1204.02ZM1204.02 290.04V288.898H1195.86V290.04V291.183H1204.02V290.04ZM1195.86 290.04H1194.72V306.36H1195.86H1197V290.04H1195.86ZM1195.86 306.36V305.218H1179.54V306.36V307.503H1195.86V306.36ZM1179.54 306.36H1180.68V298.2H1179.54H1178.4V306.36H1179.54ZM1179.54 298.2V297.058H1171.38V298.2V299.343H1179.54V298.2ZM1171.38 298.2H1172.52V290.04H1171.38H1170.24V298.2H1171.38ZM1171.38 290.04V288.898H1163.22V290.04V291.183H1171.38V290.04ZM1163.22 290.04H1164.36V281.88H1163.22H1162.08V290.04H1163.22ZM1163.22 281.88V280.738H1155.06V281.88V283.023H1163.22V281.88ZM1155.06 281.88H1156.2V273.721H1155.06H1153.92V281.88H1155.06ZM1155.06 273.721V272.578H1146.9V273.721V274.863H1155.06V273.721ZM1146.9 273.721H1148.04V265.561H1146.9H1145.76V273.721H1146.9ZM1146.9 265.561V266.703H1155.06V265.561V264.418H1146.9V265.561ZM1155.06 265.561H1156.2V249.241H1155.06H1153.92V265.561H1155.06ZM1155.06 249.241V250.383H1163.22V249.241V248.098H1155.06V249.241ZM1163.22 249.241H1164.36V183.961H1163.22H1162.08V249.241H1163.22ZM1163.22 183.961V182.819H1155.06V183.961V185.104H1163.22V183.961ZM1155.06 183.961H1156.2V175.801H1155.06H1153.92V183.961H1155.06ZM1155.06 175.801V174.659H1146.9V175.801V176.944H1155.06V175.801ZM1146.9 175.801H1148.04V167.641H1146.9H1145.76V175.801H1146.9ZM1146.9 167.641V166.499H1130.58V167.641V168.784H1146.9V167.641ZM1130.58 167.641H1129.44V175.801H1130.58H1131.72V167.641H1130.58ZM1130.58 175.801V174.659H1122.42V175.801V176.944H1130.58V175.801ZM1122.42 175.801H1121.28V200.281H1122.42H1123.56V175.801H1122.42ZM1122.42 200.281V199.139H1114.26V200.281V201.423H1122.42V200.281ZM1114.26 200.281H1113.12V257.401H1114.26H1115.4V200.281H1114.26ZM1114.26 257.401V258.543H1122.42V257.401V256.258H1114.26V257.401ZM1122.42 257.401H1121.28V265.561H1122.42H1123.56V257.401H1122.42ZM1122.42 265.561V266.703H1130.58V265.561V264.418H1122.42V265.561ZM1130.58 265.561H1129.44V273.721H1130.58H1131.72V265.561H1130.58ZM1130.58 273.721V272.578H1122.42V273.721V274.863H1130.58V273.721ZM1122.42 273.721H1121.28V281.88H1122.42H1123.56V273.721H1122.42ZM1122.42 281.88V280.738H1114.26V281.88V283.023H1122.42V281.88ZM1114.26 281.88H1113.12V290.04H1114.26H1115.4V281.88H1114.26ZM1114.26 290.04V288.898H1106.1V290.04V291.183H1114.26V290.04ZM1106.1 290.04H1104.96V298.2H1106.1H1107.24V290.04H1106.1ZM1106.1 298.2V297.058H1097.94V298.2V299.343H1106.1V298.2ZM1097.94 298.2H1096.8V306.36H1097.94H1099.08V298.2H1097.94ZM1097.94 306.36V305.218H1081.62V306.36V307.503H1097.94V306.36ZM1081.62 306.36H1082.76V298.2H1081.62H1080.48V306.36H1081.62ZM1244.91 273.721V272.578H1243.77V273.721H1244.91ZM1253.07 273.721V274.863H1254.22V273.721H1253.07ZM1253.07 167.641H1254.22V166.499H1253.07V167.641ZM1236.75 167.641H1235.61V168.784H1236.75V167.641ZM1236.75 151.321V150.179H1235.61V151.321H1236.75ZM1244.91 151.321V152.464H1246.06V151.321H1244.91ZM1244.91 143.161V142.019H1243.77V143.161H1244.91ZM1261.23 143.161V144.304H1262.38V143.161H1261.23ZM1261.23 135.001V133.859H1260.09V135.001H1261.23ZM1277.55 135.001V136.144H1278.7V135.001H1277.55ZM1277.55 126.842V125.699H1276.41V126.842H1277.55ZM1285.71 126.842V127.984H1286.86V126.842H1285.71ZM1285.71 118.682V117.539H1284.57V118.682H1285.71ZM1310.19 118.682H1311.34V117.539H1310.19V118.682ZM1310.19 126.842H1309.05V127.984H1310.19V126.842ZM1318.35 126.842H1319.5V125.699H1318.35V126.842ZM1318.35 135.001H1317.21V136.144H1318.35V135.001ZM1334.67 135.001H1335.82V133.859H1334.67V135.001ZM1334.67 143.161H1333.53V144.304H1334.67V143.161ZM1342.83 143.161H1343.97V142.019H1342.83V143.161ZM1342.83 151.321H1341.69V152.464H1342.83V151.321ZM1350.99 151.321H1352.13V150.179H1350.99V151.321ZM1350.99 159.481H1349.85V160.624H1350.99V159.481ZM1359.15 159.481H1360.29V158.339H1359.15V159.481ZM1359.15 167.641V168.784H1360.29V167.641H1359.15ZM1350.99 167.641V166.499H1349.85V167.641H1350.99ZM1350.99 175.801V176.944H1352.13V175.801H1350.99ZM1342.83 175.801V174.659H1341.69V175.801H1342.83ZM1342.83 192.121V193.263H1343.97V192.121H1342.83ZM1334.67 192.121V190.979H1333.53V192.121H1334.67ZM1334.67 200.281V201.423H1335.82V200.281H1334.67ZM1326.51 200.281V199.139H1325.37V200.281H1326.51ZM1326.51 208.441V209.583H1327.66V208.441H1326.51ZM1318.35 208.441V207.299H1317.21V208.441H1318.35ZM1318.35 216.601V217.743H1319.5V216.601H1318.35ZM1310.19 216.601V215.459H1309.05V216.601H1310.19ZM1310.19 224.761V225.903H1311.34V224.761H1310.19ZM1302.03 224.761V223.618H1300.89V224.761H1302.03ZM1302.03 241.081V242.223H1303.18V241.081H1302.03ZM1293.87 241.081V239.938H1292.73V241.081H1293.87ZM1293.87 257.401H1292.73V258.543H1293.87V257.401ZM1302.03 257.401H1303.18V256.258H1302.03V257.401ZM1302.03 265.561H1300.89V266.703H1302.03V265.561ZM1310.19 265.561H1311.34V264.418H1310.19V265.561ZM1310.19 273.721H1309.05V274.863H1310.19V273.721ZM1334.67 273.721H1335.82V272.578H1334.67V273.721ZM1334.67 281.88V283.023H1335.82V281.88H1334.67ZM1326.51 281.88V280.738H1325.37V281.88H1326.51ZM1326.51 290.04V291.183H1327.66V290.04H1326.51ZM1318.35 290.04V288.898H1317.21V290.04H1318.35ZM1318.35 298.2V299.343H1319.5V298.2H1318.35ZM1310.19 298.2V297.058H1309.05V298.2H1310.19ZM1310.19 306.36V307.503H1311.34V306.36H1310.19ZM1285.71 306.36H1284.57V307.503H1285.71V306.36ZM1285.71 298.2H1286.86V297.058H1285.71V298.2ZM1261.23 298.2H1260.09V299.343H1261.23V298.2ZM1261.23 290.04H1262.38V288.898H1261.23V290.04ZM1244.91 290.04H1243.77V291.183H1244.91V290.04ZM1293.87 216.601H1292.73V217.743H1293.87V216.601ZM1302.03 216.601V217.743H1303.18V216.601H1302.03ZM1302.03 208.441V207.299H1300.89V208.441H1302.03ZM1310.19 208.441V209.583H1311.34V208.441H1310.19ZM1310.19 192.121V190.979H1309.05V192.121H1310.19ZM1318.35 192.121V193.263H1319.5V192.121H1318.35ZM1318.35 175.801H1319.5V174.659H1318.35V175.801ZM1310.19 175.801H1309.05V176.944H1310.19V175.801ZM1310.19 167.641H1311.34V166.499H1310.19V167.641ZM1293.87 167.641V166.499H1292.73V167.641H1293.87ZM1293.87 175.801V176.944H1295.02V175.801H1293.87ZM1285.71 175.801V174.659H1284.57V175.801H1285.71ZM1285.71 208.441H1284.57V209.583H1285.71V208.441ZM1293.87 208.441H1295.02V207.299H1293.87V208.441ZM1244.91 273.721V274.863H1253.07V273.721V272.578H1244.91V273.721ZM1253.07 273.721H1254.22V167.641H1253.07H1251.93V273.721H1253.07ZM1253.07 167.641V166.499H1236.75V167.641V168.784H1253.07V167.641ZM1236.75 167.641H1237.9V151.321H1236.75H1235.61V167.641H1236.75ZM1236.75 151.321V152.464H1244.91V151.321V150.179H1236.75V151.321ZM1244.91 151.321H1246.06V143.161H1244.91H1243.77V151.321H1244.91ZM1244.91 143.161V144.304H1261.23V143.161V142.019H1244.91V143.161ZM1261.23 143.161H1262.38V135.001H1261.23H1260.09V143.161H1261.23ZM1261.23 135.001V136.144H1277.55V135.001V133.859H1261.23V135.001ZM1277.55 135.001H1278.7V126.842H1277.55H1276.41V135.001H1277.55ZM1277.55 126.842V127.984H1285.71V126.842V125.699H1277.55V126.842ZM1285.71 126.842H1286.86V118.682H1285.71H1284.57V126.842H1285.71ZM1285.71 118.682V119.824H1310.19V118.682V117.539H1285.71V118.682ZM1310.19 118.682H1309.05V126.842H1310.19H1311.34V118.682H1310.19ZM1310.19 126.842V127.984H1318.35V126.842V125.699H1310.19V126.842ZM1318.35 126.842H1317.21V135.001H1318.35H1319.5V126.842H1318.35ZM1318.35 135.001V136.144H1334.67V135.001V133.859H1318.35V135.001ZM1334.67 135.001H1333.53V143.161H1334.67H1335.82V135.001H1334.67ZM1334.67 143.161V144.304H1342.83V143.161V142.019H1334.67V143.161ZM1342.83 143.161H1341.69V151.321H1342.83H1343.97V143.161H1342.83ZM1342.83 151.321V152.464H1350.99V151.321V150.179H1342.83V151.321ZM1350.99 151.321H1349.85V159.481H1350.99H1352.13V151.321H1350.99ZM1350.99 159.481V160.624H1359.15V159.481V158.339H1350.99V159.481ZM1359.15 159.481H1358.01V167.641H1359.15H1360.29V159.481H1359.15ZM1359.15 167.641V166.499H1350.99V167.641V168.784H1359.15V167.641ZM1350.99 167.641H1349.85V175.801H1350.99H1352.13V167.641H1350.99ZM1350.99 175.801V174.659H1342.83V175.801V176.944H1350.99V175.801ZM1342.83 175.801H1341.69V192.121H1342.83H1343.97V175.801H1342.83ZM1342.83 192.121V190.979H1334.67V192.121V193.263H1342.83V192.121ZM1334.67 192.121H1333.53V200.281H1334.67H1335.82V192.121H1334.67ZM1334.67 200.281V199.139H1326.51V200.281V201.423H1334.67V200.281ZM1326.51 200.281H1325.37V208.441H1326.51H1327.66V200.281H1326.51ZM1326.51 208.441V207.299H1318.35V208.441V209.583H1326.51V208.441ZM1318.35 208.441H1317.21V216.601H1318.35H1319.5V208.441H1318.35ZM1318.35 216.601V215.459H1310.19V216.601V217.743H1318.35V216.601ZM1310.19 216.601H1309.05V224.761H1310.19H1311.34V216.601H1310.19ZM1310.19 224.761V223.618H1302.03V224.761V225.903H1310.19V224.761ZM1302.03 224.761H1300.89V241.081H1302.03H1303.18V224.761H1302.03ZM1302.03 241.081V239.938H1293.87V241.081V242.223H1302.03V241.081ZM1293.87 241.081H1292.73V257.401H1293.87H1295.02V241.081H1293.87ZM1293.87 257.401V258.543H1302.03V257.401V256.258H1293.87V257.401ZM1302.03 257.401H1300.89V265.561H1302.03H1303.18V257.401H1302.03ZM1302.03 265.561V266.703H1310.19V265.561V264.418H1302.03V265.561ZM1310.19 265.561H1309.05V273.721H1310.19H1311.34V265.561H1310.19ZM1310.19 273.721V274.863H1334.67V273.721V272.578H1310.19V273.721ZM1334.67 273.721H1333.53V281.88H1334.67H1335.82V273.721H1334.67ZM1334.67 281.88V280.738H1326.51V281.88V283.023H1334.67V281.88ZM1326.51 281.88H1325.37V290.04H1326.51H1327.66V281.88H1326.51ZM1326.51 290.04V288.898H1318.35V290.04V291.183H1326.51V290.04ZM1318.35 290.04H1317.21V298.2H1318.35H1319.5V290.04H1318.35ZM1318.35 298.2V297.058H1310.19V298.2V299.343H1318.35V298.2ZM1310.19 298.2H1309.05V306.36H1310.19H1311.34V298.2H1310.19ZM1310.19 306.36V305.218H1285.71V306.36V307.503H1310.19V306.36ZM1285.71 306.36H1286.86V298.2H1285.71H1284.57V306.36H1285.71ZM1285.71 298.2V297.058H1261.23V298.2V299.343H1285.71V298.2ZM1261.23 298.2H1262.38V290.04H1261.23H1260.09V298.2H1261.23ZM1261.23 290.04V288.898H1244.91V290.04V291.183H1261.23V290.04ZM1244.91 290.04H1246.06V273.721H1244.91H1243.77V290.04H1244.91ZM1293.87 216.601V217.743H1302.03V216.601V215.459H1293.87V216.601ZM1302.03 216.601H1303.18V208.441H1302.03H1300.89V216.601H1302.03ZM1302.03 208.441V209.583H1310.19V208.441V207.299H1302.03V208.441ZM1310.19 208.441H1311.34V192.121H1310.19H1309.05V208.441H1310.19ZM1310.19 192.121V193.263H1318.35V192.121V190.979H1310.19V192.121ZM1318.35 192.121H1319.5V175.801H1318.35H1317.21V192.121H1318.35ZM1318.35 175.801V174.659H1310.19V175.801V176.944H1318.35V175.801ZM1310.19 175.801H1311.34V167.641H1310.19H1309.05V175.801H1310.19ZM1310.19 167.641V166.499H1293.87V167.641V168.784H1310.19V167.641ZM1293.87 167.641H1292.73V175.801H1293.87H1295.02V167.641H1293.87ZM1293.87 175.801V174.659H1285.71V175.801V176.944H1293.87V175.801ZM1285.71 175.801H1284.57V208.441H1285.71H1286.86V175.801H1285.71ZM1285.71 208.441V209.583H1293.87V208.441V207.299H1285.71V208.441ZM1293.87 208.441H1292.73V216.601H1293.87H1295.02V208.441H1293.87ZM1391.86 273.721V274.863H1393V273.721H1391.86ZM1391.86 265.561V264.418H1390.71V265.561H1391.86ZM1400.02 265.561V266.703H1401.16V265.561H1400.02ZM1400.02 175.801H1401.16V174.659H1400.02V175.801ZM1391.86 175.801H1390.71V176.944H1391.86V175.801ZM1391.86 167.641H1393V166.499H1391.86V167.641ZM1375.54 167.641H1374.39V168.784H1375.54V167.641ZM1375.54 151.321V150.179H1374.39V151.321H1375.54ZM1383.7 151.321V152.464H1384.84V151.321H1383.7ZM1383.7 143.161V142.019H1382.55V143.161H1383.7ZM1400.02 143.161V144.304H1401.16V143.161H1400.02ZM1400.02 126.842V125.699H1398.87V126.842H1400.02ZM1408.18 126.842V127.984H1409.32V126.842H1408.18ZM1408.18 110.522V109.379H1407.03V110.522H1408.18ZM1416.34 110.522V111.664H1417.48V110.522H1416.34ZM1416.34 86.0418V84.8994H1415.19V86.0418H1416.34ZM1424.5 86.0418V87.1842H1425.64V86.0418H1424.5ZM1424.5 69.7219V68.5795H1423.35V69.7219H1424.5ZM1432.66 69.7219H1433.8V68.5795H1432.66V69.7219ZM1432.66 135.001H1431.51V136.144H1432.66V135.001ZM1465.3 135.001H1466.44V133.859H1465.3V135.001ZM1465.3 143.161H1464.15V144.304H1465.3V143.161ZM1473.46 143.161H1474.6V142.019H1473.46V143.161ZM1473.46 159.481V160.624H1474.6V159.481H1473.46ZM1465.3 159.481V158.339H1464.15V159.481H1465.3ZM1465.3 167.641V168.784H1466.44V167.641H1465.3ZM1440.82 167.641V166.499H1439.67V167.641H1440.82ZM1440.82 175.801V176.944H1441.96V175.801H1440.82ZM1432.66 175.801V174.659H1431.51V175.801H1432.66ZM1432.66 265.561H1431.51V266.703H1432.66V265.561ZM1440.82 265.561H1441.96V264.418H1440.82V265.561ZM1440.82 273.721H1439.67V274.863H1440.82V273.721ZM1457.14 273.721H1458.28V272.578H1457.14V273.721ZM1457.14 298.2V299.343H1458.28V298.2H1457.14ZM1448.98 298.2V297.058H1447.83V298.2H1448.98ZM1448.98 306.36V307.503H1450.12V306.36H1448.98ZM1416.34 306.36H1415.19V307.503H1416.34V306.36ZM1416.34 298.2H1417.48V297.058H1416.34V298.2ZM1400.02 298.2H1398.87V299.343H1400.02V298.2ZM1400.02 290.04H1401.16V288.898H1400.02V290.04ZM1383.7 290.04H1382.55V291.183H1383.7V290.04ZM1383.7 273.721V272.578H1382.55V273.721H1383.7ZM1391.86 273.721H1393V265.561H1391.86H1390.71V273.721H1391.86ZM1391.86 265.561V266.703H1400.02V265.561V264.418H1391.86V265.561ZM1400.02 265.561H1401.16V175.801H1400.02H1398.87V265.561H1400.02ZM1400.02 175.801V174.659H1391.86V175.801V176.944H1400.02V175.801ZM1391.86 175.801H1393V167.641H1391.86H1390.71V175.801H1391.86ZM1391.86 167.641V166.499H1375.54V167.641V168.784H1391.86V167.641ZM1375.54 167.641H1376.68V151.321H1375.54H1374.39V167.641H1375.54ZM1375.54 151.321V152.464H1383.7V151.321V150.179H1375.54V151.321ZM1383.7 151.321H1384.84V143.161H1383.7H1382.55V151.321H1383.7ZM1383.7 143.161V144.304H1400.02V143.161V142.019H1383.7V143.161ZM1400.02 143.161H1401.16V126.842H1400.02H1398.87V143.161H1400.02ZM1400.02 126.842V127.984H1408.18V126.842V125.699H1400.02V126.842ZM1408.18 126.842H1409.32V110.522H1408.18H1407.03V126.842H1408.18ZM1408.18 110.522V111.664H1416.34V110.522V109.379H1408.18V110.522ZM1416.34 110.522H1417.48V86.0418H1416.34H1415.19V110.522H1416.34ZM1416.34 86.0418V87.1842H1424.5V86.0418V84.8994H1416.34V86.0418ZM1424.5 86.0418H1425.64V69.7219H1424.5H1423.35V86.0418H1424.5ZM1424.5 69.7219V70.8643H1432.66V69.7219V68.5795H1424.5V69.7219ZM1432.66 69.7219H1431.51V135.001H1432.66H1433.8V69.7219H1432.66ZM1432.66 135.001V136.144H1465.3V135.001V133.859H1432.66V135.001ZM1465.3 135.001H1464.15V143.161H1465.3H1466.44V135.001H1465.3ZM1465.3 143.161V144.304H1473.46V143.161V142.019H1465.3V143.161ZM1473.46 143.161H1472.31V159.481H1473.46H1474.6V143.161H1473.46ZM1473.46 159.481V158.339H1465.3V159.481V160.624H1473.46V159.481ZM1465.3 159.481H1464.15V167.641H1465.3H1466.44V159.481H1465.3ZM1465.3 167.641V166.499H1440.82V167.641V168.784H1465.3V167.641ZM1440.82 167.641H1439.67V175.801H1440.82H1441.96V167.641H1440.82ZM1440.82 175.801V174.659H1432.66V175.801V176.944H1440.82V175.801ZM1432.66 175.801H1431.51V265.561H1432.66H1433.8V175.801H1432.66ZM1432.66 265.561V266.703H1440.82V265.561V264.418H1432.66V265.561ZM1440.82 265.561H1439.67V273.721H1440.82H1441.96V265.561H1440.82ZM1440.82 273.721V274.863H1457.14V273.721V272.578H1440.82V273.721ZM1457.14 273.721H1455.99V298.2H1457.14H1458.28V273.721H1457.14ZM1457.14 298.2V297.058H1448.98V298.2V299.343H1457.14V298.2ZM1448.98 298.2H1447.83V306.36H1448.98H1450.12V298.2H1448.98ZM1448.98 306.36V305.218H1416.34V306.36V307.503H1448.98V306.36ZM1416.34 306.36H1417.48V298.2H1416.34H1415.19V306.36H1416.34ZM1416.34 298.2V297.058H1400.02V298.2V299.343H1416.34V298.2ZM1400.02 298.2H1401.16V290.04H1400.02H1398.87V298.2H1400.02ZM1400.02 290.04V288.898H1383.7V290.04V291.183H1400.02V290.04ZM1383.7 290.04H1384.84V273.721H1383.7H1382.55V290.04H1383.7ZM1383.7 273.721V274.863H1391.86V273.721V272.578H1383.7V273.721Z" fill="white" mask="url(#path-1-outside-1_376_2061)"/>
</g>
<defs>
<filter id="filter0_d_376_2061" x="3.09944e-06" y="-1.21593e-05" width="1474.6" height="389.102" filterUnits="userSpaceOnUse" color-interpolation-filters="sRGB">
<feFlood flood-opacity="0" result="BackgroundImageFix"/>
<feColorMatrix in="SourceAlpha" type="matrix" values="0 0 0 0 0 0 0 0 0 0 0 0 0 0 0 0 0 0 127 0" result="hardAlpha"/>
<feOffset dx="-2" dy="-2"/>
<feGaussianBlur stdDeviation="0.65"/>
<feComposite in2="hardAlpha" operator="out"/>
<feColorMatrix type="matrix" values="0 0 0 0 1 0 0 0 0 1 0 0 0 0 1 0 0 0 1 0"/>
<feBlend mode="normal" in2="BackgroundImageFix" result="effect1_dropShadow_376_2061"/>
<feBlend mode="normal" in="SourceGraphic" in2="effect1_dropShadow_376_2061" result="shape"/>
</filter>
<linearGradient id="paint0_linear_376_2061" x1="1010.49" y1="200.231" x2="360.28" y2="550.293" gradientUnits="userSpaceOnUse">
<stop offset="0.0480769"/>
<stop offset="0.214739" stop-color="#5500FF"/>
<stop offset="0.375" stop-color="#EF00FF"/>
<stop offset="0.455583" stop-color="#F93A0A"/>
<stop offset="0.461538" stop-color="#F0161A"/>
<stop offset="0.581731" stop-color="#FF5100"/>
<stop offset="0.639423" stop-color="#FFEA00"/>
<stop offset="0.682692" stop-color="#B7FF00"/>
<stop offset="0.769231" stop-color="#00D0FF"/>
<stop offset="0.971154"/>
</linearGradient>
</defs>
</svg>
