<svg width="339" height="308" viewBox="0 0 339 308" fill="none" xmlns="http://www.w3.org/2000/svg">
<path d="M200.2 0V308H154V292.6H138.6V277.2H123.2V261.8H107.8V246.4H92.4V231H77V215.6H0V92.4H77V77H92.4V61.6H107.8V46.2H123.2V30.8H138.6V15.4H154V0H200.2ZM246.4 200.2V184.8H231V169.4H246.4V138.6H231V123.2H246.4V107.8H261.8V123.2H277.2V184.8H261.8V200.2H246.4Z" fill="white"/>
<path d="M338.8 123.2V184.8H323.4V215.6H308V231H292.6V246.4H277.2V231H261.8V215.6H277.2V200.2H292.6V184.8H308V123.2H292.6V107.8H277.2V92.4H261.8V77H277.2V61.6H292.6V77H308V92.4H323.4V123.2H338.8Z" fill="white"/>
</svg>
