<svg width="66" height="63" viewBox="0 0 66 63" fill="none" xmlns="http://www.w3.org/2000/svg">
<path d="M40.625 0V62.5H31.25V59.375H28.125V56.25H25V53.125H21.875V50H18.75V46.875H15.625V43.75H0V18.75H15.625V15.625H18.75V12.5H21.875V9.375H25V6.25H28.125V3.125H31.25V0H40.625ZM65.625 18.75V25H62.5V28.125H59.375V34.375H62.5V37.5H65.625V43.75H59.375V40.625H56.25V37.5H53.125V40.625H50V43.75H43.75V37.5H46.875V34.375H50V28.125H46.875V25H43.75V18.75H50V21.875H53.125V25H56.25V21.875H59.375V18.75H65.625Z" fill="white"/>
</svg>
