<svg width="69" height="63" viewBox="0 0 69 63" fill="none" xmlns="http://www.w3.org/2000/svg">
<path d="M40.625 0V62.5H31.25V59.375H28.125V56.25H25V53.125H21.875V50H18.75V46.875H15.625V43.75H0V18.75H15.625V15.625H18.75V12.5H21.875V9.375H25V6.25H28.125V3.125H31.25V0H40.625ZM50 40.625V37.5H46.875V34.375H50V28.125H46.875V25H50V21.875H53.125V25H56.25V37.5H53.125V40.625H50Z" fill="white"/>
<path d="M68.75 25V37.5H65.625V43.75H62.5V46.875H59.375V50H56.25V46.875H53.125V43.75H56.25V40.625H59.375V37.5H62.5V25H59.375V21.875H56.25V18.75H53.125V15.625H56.25V12.5H59.375V15.625H62.5V18.75H65.625V25H68.75Z" fill="white"/>
</svg>
